<?xml version="1.0" encoding="UTF-8" standalone="no"?>
<svg
   xmlns:dc="http://purl.org/dc/elements/1.1/"
   xmlns:cc="http://creativecommons.org/ns#"
   xmlns:rdf="http://www.w3.org/1999/02/22-rdf-syntax-ns#"
   xmlns:svg="http://www.w3.org/2000/svg"
   xmlns="http://www.w3.org/2000/svg"
   xmlns:sodipodi="http://sodipodi.sourceforge.net/DTD/sodipodi-0.dtd"
   xmlns:inkscape="http://www.inkscape.org/namespaces/inkscape"
   version="1.1"
   id="svg2"
   xml:space="preserve"
   width="952"
   height="228"
   viewBox="0 0 952 228"
   sodipodi:docname="InformaticsUni_CMYK.eps"><metadata
     id="metadata8"><rdf:RDF><cc:Work
         rdf:about=""><dc:format>image/svg+xml</dc:format><dc:type
           rdf:resource="http://purl.org/dc/dcmitype/StillImage" /></cc:Work></rdf:RDF></metadata><defs
     id="defs6" /><sodipodi:namedview
     pagecolor="#ffffff"
     bordercolor="#666666"
     borderopacity="1"
     objecttolerance="10"
     gridtolerance="10"
     guidetolerance="10"
     inkscape:pageopacity="0"
     inkscape:pageshadow="2"
     inkscape:window-width="640"
     inkscape:window-height="480"
     id="namedview4" /><g
     id="g10"
     inkscape:groupmode="layer"
     inkscape:label="ink_ext_XXXXXX"
     transform="matrix(1.3333333,0,0,-1.3333333,0,228)"><g
       id="g12"
       transform="scale(0.1)"><path
         d="m 127.18,1026.31 c 14.89,-3.31 19.582,-1.42 21.992,9.15 l 3.656,-0.81 -9.777,-43.81 -3.653,0.82 c 1.954,8.86 0.512,14.61 -16.558,18.41 l -94.2697,21.06 -3.9687,-17.87 c -3.7305,-16.588 -0.6797,-25.229 12.0195,-29.229 l -0.8008,-3.66 -28.24999,6.359 0.8086,3.61 c 1.90239,1.441 3.42189,3.148 4.94139,5.949 1.2813,2.691 2.5391,6.471 3.7305,11.651 l 14.4609,64.7 c 2.4297,10.76 2.2578,16 -0.1015,20.63 l 0.8515,3.91 28.2774,-6.32 -0.5586,-2.37 c -10.8711,-0.1 -19.1524,-2.55 -23.5313,-22.17 l -4.1875,-18.74 94.9183,-21.27"
         style="fill:#0c2f59;fill-opacity:1;fill-rule:nonzero;stroke:none"
         id="path14" /><path
         d="m 133.871,1166.92 32.981,-16.1 c 13.687,-6.7 19.738,-5.44 24.5,4.28 l 3.359,-1.64 -20.09,-41.11 -3.351,1.64 c 4.261,8.75 3.32,14.37 -11.809,21.73 l -70.9219,34.58 c -13.5196,6.59 -19.3985,6.07 -24.3672,-4.1 l -3.4219,1.7 20.1016,41.13 3.3593,-1.69 c -4.3593,-8.92 -2.7812,-14.84 11.7188,-21.93 l 32.3513,-15.77 30.27,61.98 -32.403,15.8 c -13.867,6.79 -19.5,5.87 -24.257,-3.92 l -3.4027,1.68 19.8707,40.7 3.352,-1.64 C 116.98,1274.48 120,1269.1 133.52,1262.5 l 70.96,-34.58 c 13.469,-6.58 19.622,-5.66 24.36,4.08 l 3.32,-1.67 -19.851,-40.66 -3.34,1.64 c 4.359,8.9 3.23,14.16 -11.891,21.52 l -32.969,16.07 -30.238,-61.98"
         style="fill:#0c2f59;fill-opacity:1;fill-rule:nonzero;stroke:none"
         id="path16" /><path
         d="m 283.602,1375.21 -2.372,-2.91 c -10.039,4.86 -12.332,4.2 -20.71,-5.81 l -20.059,-24.12 34.801,-29.03 c 4.777,-3.95 8.078,-3.81 12.617,1.6 l 14.121,17 c 11.871,14.28 14.172,18.41 6.238,34.78 l 2.391,2.92 14.531,-19.55 -58.469,-70.13 -2.871,2.34 c 6.379,7.67 6.789,13.08 -6.121,23.83 l -60.808,50.66 c -12.02,9.98 -17.692,10.12 -24.61,1.83 l -2.929,2.41 58.468,70.09 16.321,-13.55 -1.59,-1.87 c -12.531,6.68 -16.199,3.99 -25.11,-6.68 L 194.07,1381 l 41.621,-34.68 22.629,27.16 c 5.532,6.64 6.461,10.21 -0.691,18.49 l 2.383,2.88 23.59,-19.64"
         style="fill:#0c2f59;fill-opacity:1;fill-rule:nonzero;stroke:none"
         id="path18" /><path
         d="m 520.922,1517.88 c -3.652,-18.27 -11.973,-30.58 -26.594,-38.8 -26.808,-15.08 -48.238,-2.32 -58.937,16.78 l -30.61,54.29 c -8.269,14.66 -13.722,15.4 -22.359,10.47 l -1.844,3.28 39.832,22.51 1.86,-3.31 c -9.04,-5.11 -10.879,-10.41 -2.942,-24.49 l 31.473,-55.84 c 9.558,-16.96 25.789,-23.8 44.5,-13.28 12.719,7.2 20.289,19.84 21.301,36.14 l -37.454,66.43 c -7.168,12.68 -12.578,15.48 -21.66,10.88 l -1.789,3.29 38.903,21.93 1.839,-3.3 c -9.261,-5.2 -10.16,-11.26 -2.632,-24.57 l 38.691,-68.72 c 8.148,-14.46 13.941,-15.28 22.441,-10.51 l 1.797,-3.28 -27.117,-15.28 -8.699,15.38"
         style="fill:#0c2f59;fill-opacity:1;fill-rule:nonzero;stroke:none"
         id="path20" /><path
         d="m 721.75,1567.98 -3.629,-0.91 -113.859,84.47 -0.41,-0.06 22.058,-86.15 c 3.168,-12.39 9.238,-15.66 20.41,-12.81 l 0.891,-3.62 -37.242,-9.51 -0.981,3.6 c 10.364,2.65 14.461,7.14 9.871,24.89 l -18.371,71.77 c -3.468,13.69 -9.117,20.48 -24.027,18.04 l -0.91,3.65 31.469,8.02 101.199,-75.85 0.359,0.1 -18.379,71.73 c -4.121,16.04 -9.429,18.99 -20.14,16.3 l -0.918,3.65 37.07,9.42 0.918,-3.57 c -12,-3.09 -14.609,-9 -10.949,-23.34 l 25.57,-99.82"
         style="fill:#0c2f59;fill-opacity:1;fill-rule:nonzero;stroke:none"
         id="path22" /><path
         d="m 825.059,1601.78 c 0.722,-15.45 4.742,-19.89 15.351,-19.38 l 0.168,-3.77 -45.476,-2.27 -0.192,3.76 c 10.36,0.54 14.129,4.72 13.379,20.82 l -3.937,78.82 c -0.84,15.9 -4.582,19.89 -15.372,19.37 l -0.199,3.78 45.52,2.25 0.168,-3.75 c -10.598,-0.53 -14.141,-5.58 -13.328,-20.82 l 3.918,-78.81"
         style="fill:#0c2f59;fill-opacity:1;fill-rule:nonzero;stroke:none"
         id="path24" /><path
         d="m 952.988,1570.01 -3.476,0.44 -25.242,107.09 c -3.899,16.09 -6.141,22.45 -17.942,24.46 l 0.5,3.7 45.57,-6.05 -0.507,-3.69 c -8.981,1.14 -13.993,-3.07 -11.582,-13.46 l 19.91,-85.12 39.562,74.34 c 5.339,10.24 4.289,17.24 -7.09,18.78 l 0.489,3.74 36.57,-4.9 -0.53,-3.92 c -9.42,1.28 -17.35,-5.03 -26,-21.29 l -50.232,-94.12"
         style="fill:#0c2f59;fill-opacity:1;fill-rule:nonzero;stroke:none"
         id="path26" /><path
         d="m 1152.8,1567.56 -3.56,1.29 c 1.24,11.09 -0.14,13.04 -12.38,17.48 l -29.5,10.79 -15.58,-42.55 c -2.13,-5.83 -0.89,-8.85 5.77,-11.32 l 20.8,-7.58 c 17.39,-6.35 22.07,-7.12 34.85,5.87 l 3.48,-1.31 -13.53,-20.22 -85.73,31.35 1.33,3.55 c 9.33,-3.39 14.51,-2.02 20.28,13.76 l 27.22,74.28 c 5.42,14.76 3.59,20.1 -6.57,23.83 l 1.25,3.56 85.78,-31.38 -7.31,-19.91 -2.29,0.82 c 2.1,14.08 -1.69,16.63 -14.75,21.39 l -34.27,12.56 -18.62,-50.91 33.24,-12.11 c 8.1,-2.97 11.73,-2.64 17.11,6.91 l 3.54,-1.26 -10.56,-28.89"
         style="fill:#0c2f59;fill-opacity:1;fill-rule:nonzero;stroke:none"
         id="path28" /><path
         d="m 1261.94,1523.32 8.48,-5.61 c 19.38,-12.78 8.48,-41.35 12.43,-78.37 l 21.59,-14.23 2.09,3.14 c -16.68,12.84 -0.37,52.15 -11.7,77.87 18.55,-5.59 31.2,0.05 38.91,11.66 9.21,14.04 6.79,35.27 -17.05,50.91 l -43.35,28.61 -2.02,-3.11 c 8.44,-5.58 10.27,-10.51 1.12,-24.38 l -43.64,-66.25 c -9.36,-14.21 -14.92,-14.29 -23.05,-8.89 l -2.1,-3.15 38.04,-25.07 2.05,3.14 c -8.66,5.77 -9.4,11.81 -0.91,24.73 z m 34.73,52.77 11.1,-7.31 c 16.26,-10.69 20.17,-27.59 10.95,-41.59 -8.05,-12.21 -23.05,-19.76 -40.93,-7.95 l -12.93,8.51 31.81,48.34"
         style="fill:#0c2f59;fill-opacity:1;fill-rule:nonzero;stroke:none"
         id="path30" /><path
         d="m 1463.67,1408.49 -2.63,2.68 c 11.99,14.6 7.87,29.18 -1.13,38.29 -9.29,9.45 -21.18,11.14 -29.55,2.88 -16.65,-16.42 1.61,-43.78 1.38,-69.41 -0.11,-12.51 -4.22,-19.64 -10.23,-25.55 -14.16,-13.98 -37.01,-13.78 -50.95,0.38 -9.49,9.63 -12.63,22.33 -15.58,25.29 -1.52,1.6 -3.77,1.6 -6.85,0.06 l -2.67,2.66 24.39,24.06 2.66,-2.65 c -16.51,-16.63 -8.55,-35.77 -0.79,-43.65 10.74,-10.84 24.1,-11.89 33.88,-2.26 15.62,15.31 -1.01,46.73 -0.91,66.76 0.09,10.92 4.24,19.31 11.32,26.32 13.88,13.65 33.11,13 47.54,-1.59 9.43,-9.61 10.48,-17.64 13.88,-21.12 1.38,-1.37 2.05,-1.37 4.89,0.14 l 2.44,-2.52 -21.09,-20.77"
         style="fill:#0c2f59;fill-opacity:1;fill-rule:nonzero;stroke:none"
         id="path32" /><path
         d="m 1474.39,1272.97 c -12.73,-8.83 -14.38,-14.53 -8.3,-23.27 l -3.13,-2.15 -25.94,37.45 3.1,2.13 c 5.92,-8.52 11.44,-9.54 24.68,-0.35 l 64.92,44.95 c 13.08,9.06 14.5,14.37 8.37,23.3 l 3.02,2.09 25.97,-37.4 -3.07,-2.15 c -6.09,8.74 -12.21,9.04 -24.73,0.37 l -64.89,-44.97"
         style="fill:#0c2f59;fill-opacity:1;fill-rule:nonzero;stroke:none"
         id="path34" /><path
         d="m 1537.46,1158.07 c -13.83,-6.36 -16.47,-10.72 -11.96,-20.59 l -3.38,-1.54 -18.74,40.75 3.42,1.58 c 3.81,-8.27 8.39,-11.99 24.27,-4.72 l 87.82,40.29 -7.63,16.69 c -7.06,15.48 -14.73,20.45 -27.25,15.96 l -1.57,3.38 26.32,12.08 1.57,-3.37 c -0.67,-2.27 -0.85,-4.55 -0.36,-7.74 0.63,-2.9 1.87,-6.68 4.01,-11.53 l 27.69,-60.3 c 4.59,-10.04 7.92,-14.12 12.59,-16.34 l 1.69,-3.6 -26.35,-12.1 -1.03,2.24 c 8.63,6.65 13.74,13.6 5.33,31.9 l -7.99,17.45 -88.45,-40.49"
         style="fill:#0c2f59;fill-opacity:1;fill-rule:nonzero;stroke:none"
         id="path36" /><path
         d="m 1587.44,1004.06 c -14.94,-3.21 -19.1,-7.251 -16.78,-17.83 l -3.69,-0.789 -9.67,45.159 3.69,0.79 c 2.01,-9.53 5.16,-14.71 22.91,-10.89 l 38.86,8.29 35.46,35.21 c 11.77,11.52 13.82,15.8 12.19,25.63 l 3.63,0.77 10.38,-48.42 -3.67,-0.76 c -2.96,13.65 -8,14.12 -14.49,7.54 l -32.43,-32.51 35.38,-13.02 c 11.01,-3.968 20.2,-2.45 17.96,7.9 l 3.67,0.85 7.29,-33.968 -3.67,-0.813 c -2.69,9.36 -5.99,12.09 -18.3,16.692 l -49.84,18.499 -38.88,-8.33"
         style="fill:#0c2f59;fill-opacity:1;fill-rule:nonzero;stroke:none"
         id="path38" /><path
         d="M 79.7813,701.531 C 43.6602,691.148 23.6016,654.52 34.0781,618.18 44.5117,581.891 81,561.301 117.16,571.738 c 35.418,10.192 55.09,46.633 44.699,82.723 -10.699,37.168 -45.961,57.461 -82.0777,47.07 z m 5.1875,-18.793 c 35.2612,10.172 64.0822,-1.34 72.3012,-30.027 7.218,-25.031 -8.34,-51.602 -46.579,-62.602 -29.5308,-8.488 -63.2105,-0.988 -71.9996,29.661 -7.8828,27.371 10.7774,52.789 46.2774,62.968"
         style="fill:#0c2f59;fill-opacity:1;fill-rule:nonzero;stroke:none"
         id="path40" /><path
         d="M 130.262,455.609 C 116.789,447.93 114.66,442.371 119.891,433.148 l -3.25,-1.91 -22.5902,39.551 3.2773,1.91 c 5.2739,-9.23 10.9809,-10.328 24.6129,-2.508 l 68.528,39.079 c 13.832,7.878 15.601,13.218 10.371,22.48 l 3.25,1.859 43.07,-75.449 -19.64,-11.172 -1.399,2.461 c 11.949,10.36 10.867,14.102 4.051,26 l -16.024,28.02 -46.07,-26.289 16.313,-28.602 c 4.699,-8.277 10.687,-8.898 20.089,-4.828 l 1.739,-3.078 -30.899,-17.633 -1.742,3.02 c 7.633,4.921 10.063,11.382 5.684,19.07 l -16.571,29.031 -32.429,-18.551"
         style="fill:#0c2f59;fill-opacity:1;fill-rule:nonzero;stroke:none"
         id="path42" /><path
         d="m 373.172,211.352 -2.922,2.367 c 4.828,10.09 4.16,12.371 -5.961,20.59 l -24.238,20 -28.801,-35.098 c -3.871,-4.77 -3.719,-8.07 1.77,-12.563 l 17.058,-14.027 c 14.371,-11.73 18.551,-14.031 34.852,-5.949 l 2.941,-2.391 -19.473,-14.633 -70.589,57.911 2.363,2.89 c 7.707,-6.289 13.078,-6.719 23.726,6.301 l 50.204,61.172 c 9.918,12.129 10.007,17.797 1.628,24.637 l 2.411,2.91 70.558,-57.867 -13.449,-16.454 -1.898,1.551 c 6.636,12.61 3.91,16.231 -6.84,25.082 l -28.203,23.16 -34.348,-41.902 27.309,-22.469 c 6.699,-5.41 10.23,-6.332 18.449,0.91 l 2.972,-2.402 -19.519,-23.726"
         style="fill:#0c2f59;fill-opacity:1;fill-rule:nonzero;stroke:none"
         id="path44" /><path
         d="m 461.262,125.379 c -6.563,-14.277 -12.242,-16.539 -21.5,-12.27 l -1.582,-3.418 54.648,-25.1597 c 45.16,-20.8321 75.762,-2.5704 89.043,26.3207 13.828,29.929 6.508,69.07 -37.441,89.339 l -53.211,24.559 -1.559,-3.488 c 9.621,-4.403 11.02,-10.41 4.621,-24.242 z m 56.218,81.883 21.891,-10.121 c 36.34,-16.711 37.43,-50.789 24.77,-78.352 -14.45,-31.3281 -40.563,-43.0507 -69.11,-29.9687 l -11.82,5.4883 c -10.66,4.8906 -13.082,10.1214 -4.859,28.0504 l 39.128,84.903"
         style="fill:#0c2f59;fill-opacity:1;fill-rule:nonzero;stroke:none"
         id="path46" /><path
         d="m 684.121,45.4414 c -3.351,-15.0898 -0.672,-20.5 9.719,-22.7812 L 693,19 l -44.441,9.8086 0.781,3.6797 c 10.14,-2.25 14.89,0.7812 18.379,16.5312 l 16.972,77.0825 c 3.411,15.578 0.86,20.398 -9.73,22.757 l 0.84,3.68 44.429,-9.82 -0.8,-3.668 c -10.36,2.238 -15.071,-1.641 -18.36,-16.531 L 684.121,45.4414"
         style="fill:#0c2f59;fill-opacity:1;fill-rule:nonzero;stroke:none"
         id="path48" /><path
         d="m 913.191,4.51953 h -3.722 L 818.941,113.66 818.48,113.609 819.488,24.7109 C 819.621,11.9688 824.719,7.35156 836.27,7.48047 l 0.019,-3.80078 -38.461,-0.32031 -0.039,3.67968 c 10.609,0.10938 15.66,3.49224 15.449,21.91014 l -0.828,74.0198 c -0.14,14.16 -3.969,22.031 -19.058,23.242 l -0.043,3.769 32.531,0.329 80.211,-97.7777 0.429,0.1171 -0.82,73.9806 c -0.191,16.621 -4.629,20.742 -15.699,20.621 l -0.07,3.781 38.281,0.438 0.039,-3.758 c -12.402,-0.16 -16.32,-5.32 -16.152,-20.121 L 913.191,4.51953"
         style="fill:#0c2f59;fill-opacity:1;fill-rule:nonzero;stroke:none"
         id="path50" /><path
         d="m 1047.04,90.7188 11.5,3.1328 c 21.53,5.9375 38.53,-2.4532 43.45,-20.3907 4.93,-17.8906 -4.52,-29.4023 -16.87,-32.789 l -10.05,-2.8203 c -9.56,-2.6328 -13.64,0.6484 -18.19,17.0781 z m -5.79,-42.4571 c 4.16,-14.8828 1.76,-20.3906 -8.51,-23.1328 l 0.98,-3.6992 56.29,15.5312 c 23.05,6.3086 36.06,22.3086 30.99,40.6407 -4.53,16.4179 -21.12,26.9294 -40.96,25.6284 l -0.12,0.411 c 15.34,10.14 20.61,21 16.88,34.48 -4.27,15.527 -21.18,26.258 -50.62,18.16 l -46.04,-12.691 1.02,-3.602 c 10.17,2.801 14.88,0 19.18,-15.617 z m 4.49,47.0977 -14.24,51.8316 12.14,3.321 c 19.81,5.457 32.21,-2.793 36.43,-18.172 4.22,-15.36 -3.85,-28.551 -21.76,-33.4689 l -12.57,-3.5117"
         style="fill:#0c2f59;fill-opacity:1;fill-rule:nonzero;stroke:none"
         id="path52" /><path
         d="m 1303.33,151.988 c -3.36,-18.359 -11.51,-30.789 -25.99,-39.218 -26.53,-15.5005 -48.15,-3.032 -59.22,15.82 l -31.41,53.898 c -8.45,14.492 -13.96,15.063 -22.56,10.133 l -1.86,3.168 39.5,23.133 1.89,-3.25 c -8.94,-5.231 -10.73,-10.672 -2.56,-24.551 l 32.31,-55.391 c 9.83,-16.769 26.17,-23.359 44.67,-12.55 12.61,7.39 20.03,20.129 20.75,36.441 l -38.47,65.91 c -7.31,12.559 -12.73,15.27 -21.75,10.539 l -1.9,3.231 38.54,22.48 1.9,-3.179 c -9.17,-5.391 -9.92,-11.481 -2.26,-24.633 l 39.78,-68.188 c 8.37,-14.281 14.11,-15.019 22.51,-10.14 l 1.96,-3.219 -26.95,-15.723 -8.88,15.289"
         style="fill:#0c2f59;fill-opacity:1;fill-rule:nonzero;stroke:none"
         id="path54" /><path
         d="m 1399.45,279.238 7.12,7.25 c 16.34,16.5 42.2,0.274 79.3,-3.058 l 18.15,18.41 -2.68,2.648 c -15.84,-13.847 -51.13,9.821 -78.63,3.653 9.11,17.14 6.01,30.718 -3.9,40.468 -11.94,11.84 -33.27,13.563 -53.3,-6.718 l -36.4,-37.032 2.64,-2.597 c 7.14,7.187 12.32,8.019 24.09,-3.59 l 56.53,-55.774 c 12.13,-11.949 11.05,-17.367 4.17,-24.367 l 2.7,-2.652 32.02,32.48 -2.71,2.61 c -7.24,-7.367 -13.41,-6.93 -24.38,3.972 z m -44.99,44.403 9.3,9.461 c 13.62,13.839 31.01,14.437 42.95,2.628 10.39,-10.261 14.88,-26.449 -0.17,-41.718 l -10.88,-11.032 -41.2,40.661"
         style="fill:#0c2f59;fill-opacity:1;fill-rule:nonzero;stroke:none"
         id="path56" /><path
         d="m 1607.52,455.609 c -1.97,-7.121 -12.76,-26.961 -15.75,-31.847 -28.94,-47.59 -67.32,-45.992 -92.26,-30.782 -38.32,23.309 -42.13,65.52 -25.97,92.122 9.38,15.308 18.06,18.07 23.09,26.418 2.05,3.351 2.05,5.402 0.08,8.21 l 2.04,3.411 31.94,-19.481 -1.86,-3.019 c -22.31,9.75 -42.14,-3.289 -51.1,-18.032 -13.56,-22.289 -4.37,-50.937 25.29,-68.961 31.75,-19.347 66.64,-14.718 82.25,10.922 4.71,7.782 9.18,19.282 -0.45,25.149 l -11.72,7.14 c -13.19,8.012 -19.81,7.922 -25.18,-0.98 l -2.54,-4.141 -3.21,1.934 26.71,43.848 3.2,-1.961 c -6.42,-10.61 -3.07,-16.5 6.4,-22.258 l 29.04,-17.692"
         style="fill:#0c2f59;fill-opacity:1;fill-rule:nonzero;stroke:none"
         id="path58" /><path
         d="m 1603.99,601.781 35.22,-10.191 c 14.69,-4.238 20.39,-1.942 23.38,8.441 l 3.62,-1 -12.66,-43.972 -3.65,1.031 c 2.72,9.308 0.82,14.691 -15.32,19.371 l -75.86,21.898 c -14.39,4.153 -20.14,2.59 -23.27,-8.238 l -3.63,1.02 12.7,43.937 3.62,-0.976 c -2.82,-9.563 -0.25,-15.082 15.28,-19.622 l 34.62,-9.992 19.14,66.282 -34.65,9.98 c -14.9,4.301 -20.28,2.391 -23.26,-8 l -3.59,1.012 12.55,43.547 3.6,-1.02 c -3,-10.41 0.92,-15.238 15.34,-19.398 l 75.87,-21.852 c 14.44,-4.18 20.29,-2.199 23.31,8.211 l 3.58,-1.02 -12.58,-43.539 -3.61,0.989 c 2.78,9.621 0.77,14.531 -15.37,19.14 l -35.25,10.25 -19.13,-66.289"
         style="fill:#0c2f59;fill-opacity:1;fill-rule:nonzero;stroke:none"
         id="path60" /><path
         d="m 73.6484,843.02 c -0.039,-6.161 -5.0703,-11.122 -11.2382,-11.059 -6.1407,0 -11.1016,5.019 -11.0586,11.219 0.0468,6.148 5.0781,11.09 11.207,11.039 6.1719,-0.02 11.1328,-5.047 11.0898,-11.199"
         style="fill:#0c2f59;fill-opacity:1;fill-rule:nonzero;stroke:none"
         id="path62" /><path
         d="m 1657.36,842.801 c -0.07,-6.172 -5.05,-11.141 -11.24,-11.102 -6.19,0.09 -11.12,5.031 -11.08,11.242 0.01,6.161 5.06,11.149 11.21,11.11 6.14,-0.063 11.11,-5.039 11.11,-11.25"
         style="fill:#0c2f59;fill-opacity:1;fill-rule:nonzero;stroke:none"
         id="path64" /><path
         d="m 1179.08,268 c 8.93,4.59 17.12,10.84 25.67,16.16 7.29,4.43 14.6,8.899 21.89,13.352 6.56,4.886 12.52,10.449 19.27,15.09 7.02,5.089 14.03,10.16 21.04,15.296 1.48,1.411 2.9,2.801 4.38,4.243 1.65,0.859 3.31,1.781 4.95,2.769 5.98,4.551 12.06,9.918 17.62,15.149 4.53,4.16 7.91,8.902 12.55,13.089 4.68,4.262 9.87,8.102 14.66,12.352 2.02,1.852 3.07,3.852 4.86,5.641 3.87,3.718 7.87,7.371 11.43,11.437 2.39,3.031 4.89,5.973 7.35,8.973 8.74,8.398 16.66,17.629 23.96,27 5.95,7.097 11.87,14.23 17.81,21.289 3.9,5.469 7.88,11.058 11.73,16.539 2,2.211 4.1,4.391 6.2,6.621 6.31,8.859 12.7,17.73 19.09,26.66 1.89,3.059 2.97,6.199 4.74,9.32 1.45,2.04 2.84,4.141 4.25,6.09 1.22,2.621 2.39,5.149 3.63,7.77 4.3,7.371 8.4,14.738 12.39,22.199 3.37,5.723 6.73,11.481 10.06,17.231 2.8,5.832 4.57,11.902 7.14,17.781 2.95,6.109 5.82,12.258 8.72,18.371 9.78,26.379 19.47,52.828 27.32,80.098 0.57,3.199 1.12,6.511 1.71,9.699 2.13,9.98 4.86,20.301 6.84,30.461 0.6,5.269 1.21,10.492 1.8,15.75 1.42,8.519 3.17,17.73 4.32,26.379 0.56,6.972 1.09,14 1.62,21.031 0.55,2.68 1.03,5.422 1.65,8.18 0.25,5.859 0.62,11.679 0.92,17.57 0.34,2.949 1.23,5.621 1.42,8.711 -0.07,4.129 -0.13,8.238 -0.19,12.308 1.79,26.391 2.29,55.153 0.82,81.352 -0.76,13.668 -3.95,27.109 -5.34,40.41 -1.56,14.109 -2.61,28.098 -5.46,41.508 -7.81,36.991 -18.03,73.321 -31.09,107.801 -1.84,4.9 -4.72,9.48 -6.78,14.38 -4.22,10.26 -8.99,19.77 -13.97,29.59 -1.65,2.8 -3.24,5.56 -4.88,8.36 -4.04,8.6 -6.84,17.81 -11.37,26.17 -2.8,5.13 -6.08,9.52 -9.33,14.43 -2.51,5.35 -5,10.66 -7.52,16.03 -9.37,14.53 -19.07,28.79 -28.8,43.04 -3.68,4.29 -7.35,8.55 -11.08,12.79 -4.06,5.32 -8.16,10.62 -12.22,15.93 -3.91,3.93 -8.26,7.21 -11.73,11.57 -1.98,2.54 -3.18,5.25 -5.27,7.78 -3.03,3.32 -6.08,6.68 -9.19,10.05 -1.82,1.67 -3.67,3.37 -5.48,5.04 -4.72,5.3 -9.04,10.72 -13.86,15.94 -4.27,3.96 -8.46,7.96 -12.64,11.88 -4.1,4.11 -8.14,8.23 -12.25,12.37 -5.59,4.35 -11.22,8.72 -16.88,13.08 -5.75,5.08 -11.61,10.13 -17.43,15.2 -3.85,2.92 -7.99,4.94 -11.98,7.51 -4.92,3.61 -9.94,7.25 -14.92,10.85 -3.78,2.67 -6.95,5.6 -10.62,8.57 -2.69,1.6 -5.37,3.29 -8.06,4.94 -3.62,2.53 -7.24,5.14 -10.9,7.68 -11.96,7.32 -24.73,12.89 -37.18,19.28 -4.48,2.84 -8.99,5.67 -13.51,8.52 -7.79,3.91 -15.59,7.92 -23.37,11.79 -6.36,3.07 -13.02,5.27 -19.56,7.86 -3.19,1.75 -6.44,3.53 -9.58,5.32 -2.49,0.87 -5.01,1.73 -7.43,2.6 -3.93,1.75 -7.84,3.5 -11.76,5.26 -12.29,4.43 -25.13,7.66 -37.86,11.5 -5.97,1.87 -12.22,4.31 -18.27,6.06 -13.28,3.88 -26.45,5.95 -40.2,9 -8.782,1.98 -17.961,4.56 -26.942,6.04 -5.847,0.83 -11.699,1.57 -17.449,2.39 -9.648,1.99 -20.437,3.75 -30.539,4.99 -3.859,0.06 -7.738,0.16 -11.68,0.28 -2.66,0.38 -5.41,0.76 -8.14,1.08 -5.27,0.09 -10.508,0.2 -15.828,0.27 -11.852,0.82 -24.383,1.8 -36.852,1.91 -4.84,-1.45 -11.59,-0.6 -16.949,-0.53 -6.481,0 -12.903,-0.07 -19.321,-0.07 -1.789,-0.29 -3.531,-0.56 -5.261,-0.85 -4.52,-0.09 -8.969,-0.21 -13.457,-0.3 -2.364,-0.61 -4.723,-1.18 -7.121,-1.73 -2.289,-0.3 -4.653,-0.56 -6.969,-0.89 -2.231,0 -4.524,0.21 -6.453,-0.52 -1.309,-0.2 -2.68,-0.4 -4.047,-0.56 -2.852,0 -5.922,0.08 -8.211,-1.13 -6.262,0.04 -15.652,-0.78 -20.5,-3.38 -1.34,-0.16 -2.723,-0.36 -4.082,-0.58 -3.988,0.04 -9.25,-0.5 -12.32,-2.27 -10.309,0.04 -18.887,-4.34 -28.25,-6.55 -4.969,-1.15 -10.887,-1.74 -15.188,-4.33 -4.051,0 -8.43,-0.98 -11.652,-2.83 -6.559,0 -12.207,-3.73 -17.77,-5.9 -3.289,-1.28 -7.379,-1.36 -10.371,-3.29 -6.5,0 -12.258,-3.77 -17.637,-6.2 -3.711,-1.58 -7.441,-3.13 -11.171,-4.68 -20.11,-8.47 -39.719,-18.1 -59.032,-28.14 -3.25,-2.06 -6.539,-4.15 -9.808,-6.22 -23.11,-11.72 -45.95,-24.61 -66.43,-41.27 -6.09,-4.33 -12.102,-8.63 -18.16,-12.92 -3.141,-2.83 -6.34,-5.72 -9.469,-8.54 -5.871,-4.32 -12.043,-8.02 -17.672,-12.81 -11.66,-9.85 -22.64,-20.87 -33.429,-31.56 -6.579,-5.97 -13.282,-12.01 -19.95,-18.07 -2.289,-2.59 -4.531,-5.21 -6.781,-7.81 -3.019,-2.83 -6.059,-5.65 -9.059,-8.48 -4.781,-4.82 -8.109,-10.66 -12.71,-15.43 -4.032,-4.07 -8.02,-7.87 -11.598,-12.33 -1.66,-2.27 -3.383,-4.52 -4.981,-6.76 -7.019,-7.88 -13.82,-15.6 -19.863,-24.05 -4.129,-6.43 -8.277,-12.89 -12.418,-19.35 -5.949,-7.64 -12.66,-17.58 -17.262,-25.96 -1.378,-2.76 -2.769,-5.48 -4.058,-8.22 -4.039,-6.72 -8.039,-13.37 -12.07,-20.03 -3.508,-6.97 -5.84,-14.36 -9.348,-21.34 -1.641,-2.73 -3.25,-5.41 -4.844,-8.07 -3.406,-6.32 -6.258,-12.58 -9.84,-18.83 -1.66,-4.09 -3.34,-8.07 -5,-12.14 -2,-4.16 -3.976,-8.3 -5.968,-12.5 -1.598,-4.73 -3.239,-9.51 -4.899,-14.29 -1.949,-5.1 -3.93,-10.28 -5.91,-15.42 -9.922,-32.06 -18.191,-64.22 -25.063,-98.189 -0.546,-6.41 -1.117,-12.75 -1.687,-19.222 -0.891,-7.348 -3.43,-15.418 -4.063,-22.778 -0.437,-5.73 -0.226,-12.222 -1.839,-17.519 -0.418,-4.57 -0.868,-9.043 -1.258,-13.453 -1.039,-27.508 -0.281,-53.61 0.41,-80.188 0.359,-12.781 2.879,-25.601 3.969,-38.07 0.332,-5.449 0.601,-10.91 0.808,-16.383 1.813,-17.09 4.692,-34.476 7.371,-51.519 1.27,-4.309 2.43,-8.649 3.629,-12.989 2.864,-13.398 5.864,-26.39 9.75,-39.289 1.153,-2.91 2.301,-5.82 3.383,-8.769 0.719,-3.051 1.508,-6.121 2.231,-9.203 5.058,-14.231 10.136,-28.489 15.16,-42.688 2.508,-5.301 5.058,-10.75 7.5,-16.082 1.476,-3.57 2.16,-7.519 3.699,-11 3.867,-9.109 9.519,-17.258 14.109,-26.07 3.668,-7.141 8,-13.969 11.621,-21.188 1,-2.531 2.09,-5.109 3.11,-7.722 1.25,-1.571 2.488,-3.09 3.789,-4.59 1.359,-3.039 2.699,-5.969 4.109,-8.989 3.422,-6 7.563,-11.761 11.879,-17.281 2.563,-3.269 4.672,-6.937 7.262,-10.23 3.539,-4.449 7.519,-8.52 10.808,-13.078 2.512,-3.77 5.043,-7.512 7.622,-11.2 4.761,-5.75 9.539,-11.472 14.378,-17.152 3.961,-4.949 7.93,-10.039 11.872,-15.039 4.98,-5.219 9.941,-10.371 14.89,-15.551 4.07,-4.699 7.59,-10.301 12.262,-14.621 6.687,-6.109 13.289,-12.348 19.457,-18.578 3.293,-3.359 6.609,-6.68 9.851,-10.012 5.45,-4.679 11.75,-8.058 16.969,-13 5,-4.859 10.039,-9.75 15.129,-14.617 3.692,-2.84 7.383,-5.652 11.012,-8.441 4.539,-3.871 8.371,-8.371 13.25,-11.809 5.91,-4.012 11.41,-8.652 17.519,-12.199 4.09,-2.352 8.45,-3.594 12.352,-6.152 4.559,-3.231 9.078,-6.43 13.629,-9.68 4.469,-2.918 9.59,-5.211 14.191,-7.988 17.219,-10.633 34.649,-19.743 52.821,-28.411 7.949,-3.8 15.457,-8.73 24,-11.66 7.867,-3.019 15.648,-6.031 23.5,-9.101 2.82,-0.782 5.687,-1.602 8.546,-2.391 7.68,-2.949 15.321,-5.859 22.993,-8.891 2.058,-0.589 4.121,-1.199 6.199,-1.808 6.59,-2.59 13.18,-5.66 20.09,-7.531 8.332,-1.637 16.699,-3.207 24.992,-4.829 12.43,-2.628 25.457,-6.48 38.156,-8.371 4.613,-0.429 9.242,-0.879 13.902,-1.179 6.192,-0.77 12.391,-2.25 18.77,-2.801 4.871,-0.258 9.699,-0.66 14.539,-0.981 3.191,-0.488 6.289,-0.929 9.43,-1.41 3.32,-0.117 6.633,-0.207 9.941,-0.367 7.641,-1.109 15.168,-2.301 22.82,-3.402 3.891,-0.219 7.809,-0.379 11.7,-0.528 2.308,0.258 4.672,0.559 7.031,0.778 6.961,-0.02 15.238,-0.778 22.238,-1.117 4.41,-0.09 8.563,0.226 12.852,0 8.75,-0.493 17.07,1.277 25.219,2.468 3.679,0.192 7.339,0.239 11.07,0.418 4.961,0.621 10.301,1.442 15.23,1.852 18.121,1.629 35.692,3.699 53.231,7.148 5.898,1.571 11.769,3.051 17.689,4.672 7.35,1.469 14.76,3.02 22.09,4.551 3.86,1.039 7.25,2.937 10.89,4.41 6.03,1.77 12.02,3.578 18.02,5.359 2.58,0.95 5.14,1.821 7.71,2.782 4.34,1.168 8.32,1.636 12.64,2.957 8.85,3.062 17.7,6.203 26.58,9.332 5.25,2.527 10.55,4.961 15.8,7.461 5.16,1.937 10.28,4.316 15.17,6.617 1.42,0.832 2.82,1.762 4.21,2.562 5.33,2.52 10.9,5.028 16.06,7.707 6.04,3.442 12.07,6.84 18.08,10.282 3.07,1.558 6.54,2.492 9.59,4.07"
         style="fill:#0c2f59;fill-opacity:1;fill-rule:nonzero;stroke:none"
         id="path66" /><path
         d="m 847.371,240.77 c -0.191,0 -0.391,0 -0.59,0 0,0.218 0,0.359 0,0.628 -0.929,0 -1.371,1.102 -1.851,1.731 -2.27,3.59 -4.52,7.23 -6.801,10.883 -4.738,5.457 -9.539,11.039 -14.238,16.609 -14.2,13.469 -30.821,25.008 -48.25,32.57 -3.582,1.27 -7.219,2.637 -10.84,3.93 -3.992,1.738 -7.699,4.039 -11.891,5.59 -3.871,1.418 -8.058,1.898 -12.211,2.687 -4.168,0.782 -8.508,1.973 -12.859,2.922 -8.91,1.789 -17.91,4.442 -26.961,6.16 -8.75,1.032 -17.488,2.098 -26.277,3.29 -6.993,0.339 -13.711,0.199 -20.442,0.808 -31.691,3.274 -63.058,6.332 -93.691,11.262 -10.418,1.781 -20.61,1.781 -30.848,3.582 -10.152,1.828 -20.359,4.777 -29.992,7.84 -5.348,1.679 -10.84,2.957 -16.051,4.886 -5.078,2.293 -10.18,4.602 -15.258,6.883 -3.5,1.598 -7.019,3.199 -10.519,4.699 -2.403,1.59 -4.903,3.2 -7.371,4.782 -1.168,0.597 -2.352,1.258 -3.532,1.91 -8.386,6.719 -14.949,15.988 -21.398,24.129 -4.93,6.34 -7.531,13.679 -9.891,21.289 -1.089,3.769 -2.289,7.539 -3.461,11.269 -3.699,17.532 -3.32,35.832 -3.507,54.993 -0.289,3.699 -0.629,7.367 -0.942,11.148 0.473,14.199 1.379,28.629 1.672,42.68 -0.101,3.109 -0.211,6.23 -0.371,9.39 0.129,14.18 0.18,28.41 0.27,42.668 0.082,9.352 0.789,18.582 0.679,27.524 -0.39,38.308 0.332,77.148 1.141,115.84 -0.289,5.476 -0.59,10.937 -0.891,16.386 -0.09,6.063 0.602,11.813 0.602,17.512 -0.071,2.762 -0.141,5.5 -0.231,8.219 0.711,8.742 1.461,17.562 2.16,26.34 0.168,6.8 -0.41,13.441 -0.41,19.863 0.051,4.828 0.77,9.68 0.539,14.598 -0.16,4.039 -1.089,7.859 -0.988,12.332 0.207,3.668 0.449,7.41 0.609,11.136 -0.089,7.422 -0.589,15.543 -0.449,23.383 0.117,4.539 0.75,9.289 0.66,14.078 -0.132,5.211 -1.14,10.313 -1.019,15.762 0.59,6.43 1.187,12.898 1.789,19.32 0.18,6.27 -0.34,12.328 -0.34,18.16 0.109,13.118 0.66,27.258 0.738,40.93 0.082,2.77 0.219,5.469 0.301,8.139 -0.25,5.91 -0.64,11.76 -0.879,17.63 0.43,5.01 0.879,10.13 1.41,15.22 0.457,24.3 0.36,49.37 0.918,73.13 0,8.18 0,16.4 0.082,24.53 -0.23,5.79 -1.082,11.44 -0.972,17.62 0.261,3.86 0.429,7.79 0.679,11.67 0.102,20.55 -0.367,41.08 -0.25,62.04 0.051,7.55 0.68,14.38 0.641,21.66 -0.098,8.16 -0.43,17.09 -0.391,25.75 0.024,5.59 0.622,11.05 0.661,16.93 0.05,4.66 -0.86,11.23 0.652,15.2 0.027,1.19 1.418,1.01 2.418,1.12 8.41,1.15 18.98,2.28 28.012,0.85 11.129,-1.71 22.339,0.11 34,0 10.308,-0.07 20.648,-0.07 30.98,-0.07 6.258,0.33 12.488,0.64 18.738,1 11.692,-0.03 22.469,-0.79 33.93,-0.69 13.699,0.14 28.481,0.33 42.762,0.29 4.019,-0.23 8.14,-0.42 12.277,-0.6 5.774,0.33 11.66,0.6 17.563,0.93 4.859,-0.11 9.41,-1.15 14.609,-1.15 6.551,-0.03 12.48,0.55 18.66,0.4 9.649,-0.18 19.961,-0.21 29.918,-0.78 4.641,-0.41 9.301,-0.7 13.981,-1.12 13.769,0.18 28.14,0.75 41.57,0.9 9.199,-0.26 18.391,-0.48 27.531,-0.78 7.762,0.1 15.43,1.6 23.391,1.57 5.519,-0.06 11.668,-0.57 17.57,-0.59 5.289,0.05 10.508,0.17 15.789,0.2 6.012,-0.47 12.07,-0.88 18.129,-1.42 4.672,0.2 9.383,0.41 14.07,0.63 9.161,-0.33 18.313,-0.63 27.493,-1 4.308,0.37 8.597,0.67 12.847,1 24.981,0.7 48.52,0.05 73.742,0.29 5.5,0.35 10.938,0.7 16.379,0.99 11.27,0.3 23.17,-0.49 33.92,0.3 2.43,0.23 4.73,0.5 7.07,0.67 9.36,-0.93 20.36,0.06 30.43,-0.17 4.2,-0.05 7.63,-1.09 11.65,-1.18 4.54,0.12 9.04,0.28 13.51,0.38 7.19,-0.26 15.53,-1.11 22.77,-0.99 5.07,0.03 9.97,0.96 15.28,0.83 3.72,-0.33 7.4,-0.65 11.08,-0.99 5.22,-0.13 11.04,0.63 16.41,0.19 3.7,-0.56 7.37,-1.1 11.16,-1.62 3.05,0.16 6.21,0.23 9.35,0.41 3.29,-0.22 6.56,-0.41 9.94,-0.6 3.29,0.15 6.61,0.35 9.88,0.54 6.29,0.06 12.34,-0.66 18.16,-0.26 9.55,0.7 18.89,-0.69 28.7,-0.57 4.63,0.27 9.33,0.64 14.01,0.89 3.12,-0.13 6.23,-0.32 9.37,-0.48 2.99,0 6.64,0.35 9.12,-0.64 0.17,-0.13 0.45,-0.38 0.67,-0.51 2.05,-3.1 1.3,-8.81 1.26,-12.98 -0.1,-13.36 -0.66,-26.3 -0.14,-39.17 0.33,-8.15 0.18,-17.52 0.28,-25.77 -0.14,-2.72 -0.28,-5.47 -0.41,-8.11 0.17,-5.93 0.46,-11.68 0.69,-17.59 -0.38,-5.87 -0.65,-11.72 -1,-17.59 0.44,-7.64 1,-15.26 1.45,-22.84 -0.34,-2.86 -0.68,-5.82 -1.01,-8.75 -0.22,-5.13 0.81,-9.71 0.78,-14.62 -0.34,-5.12 -0.64,-10.13 -0.95,-15.21 -0.05,-6.27 -0.16,-12.51 -0.24,-18.71 -0.33,-4.7 -0.71,-9.37 -1.04,-14.06 0.57,-7.65 1.12,-15.24 1.59,-22.81 -0.17,-2.77 -0.44,-5.48 -0.7,-8.22 -0.25,-6.31 -0.72,-12.65 -0.66,-18.73 0.13,-10.81 1.05,-22.87 1.19,-33.32 -0.3,-2.36 -0.6,-4.689 -0.78,-7.041 0.17,-4.848 0.37,-9.75 0.56,-14.559 -0.27,-5.66 -0.84,-12.031 -0.87,-18.23 0,-4.488 0.99,-8.469 0.87,-12.82 -0.27,-2.399 -0.56,-4.75 -0.97,-7.059 0.18,-3.09 0.3,-6.242 0.41,-9.332 -0.31,-11.73 -1.35,-23.109 -1.21,-35.168 0.18,-5.769 0.37,-11.641 0.57,-17.5 0.29,-2.371 0.57,-4.68 0.93,-7.043 -0.2,-3.949 -0.4,-7.777 -0.57,-11.726 0.12,-2.551 0.28,-5.071 0.37,-7.614 -0.32,-4.207 -0.62,-8.547 -0.99,-12.886 0.06,-5.743 1.46,-11.903 1.21,-18.122 -0.62,-17.101 -1.56,-33.23 -1.66,-50.308 -0.07,-6.91 1.04,-13 1,-19.852 -0.38,-3.75 -0.75,-7.449 -1.11,-11.148 -0.08,-8 -0.16,-16.043 -0.26,-23.942 -0.41,-4.378 -0.77,-8.671 -1.13,-12.89 0.18,-16.219 0.42,-32.43 0.62,-48.559 -0.02,-11.293 -1.19,-23.261 -1.09,-34.543 0.31,-6.058 0.6,-12.097 0.89,-18.207 -0.16,-2.359 -0.3,-4.66 -0.42,-7.019 -0.05,-4.274 -0.1,-8.512 -0.1,-12.852 -0.13,-10.449 0.41,-20.961 0.36,-31 -0.08,-12.101 0.05,-25.23 -0.21,-38.031 -0.15,-3.559 -0.35,-7 -0.43,-10.488 0.22,-2.18 0.5,-4.313 0.8,-6.469 -0.37,-7.442 -0.75,-14.852 -1.09,-22.192 -0.14,-6.269 0.73,-12.89 0.34,-19.308 -0.75,-3.961 -1.48,-7.832 -2.18,-11.813 -0.51,-4.211 -1.1,-8.468 -1.6,-12.75 -1.49,-7.25 -6.76,-17.687 -10.62,-23.918 -3.34,-5.312 -8.92,-8.222 -13.18,-12.492 -2.61,-2.488 -5.53,-4.187 -8.21,-6.429 -4.97,-4.29 -9.95,-8.79 -15.62,-11.79 -3.59,-1.39 -7.2,-2.691 -10.84,-4.019 -7.3,-3.051 -14.55,-6.34 -22.06,-9.121 -6.85,-2.59 -14.12,-4.57 -21.04,-7.102 -1.63,-0.558 -3.39,-1.218 -5.16,-1.828 -3.73,0.02 -8.81,-1.648 -11.71,-3.41 -3.26,0 -6.73,-0.398 -9.38,-1.73 -4.94,0.039 -8.47,-1.379 -12.52,-2.918 -1.28,-0.403 -2.57,-0.731 -3.85,-1.063 -2.05,0 -4.3,-0.258 -5.9,-1.16 -3.85,0.051 -12.91,-1.75 -15.84,-3.391 -3.44,0 -7.59,0.621 -10.5,-0.566 -2.01,0 -4.29,-0.262 -5.87,-1.184 -3.15,0.071 -6.9,0.422 -9.41,-1.008 -1.51,-0.281 -3.13,-0.421 -4.66,-0.621 -2.46,0 -5.04,-0.097 -6.98,-1.148 -2.21,0 -4.71,-0.262 -6.47,-1.121 -4.05,0.039 -10.19,0.719 -13.45,-1.16 -1.57,-0.149 -3.13,-0.289 -4.68,-0.442 -3.99,0.032 -8.91,1.422 -12.36,-0.597 -2.28,0.031 -5.09,0.418 -7.01,-0.481 -1.16,-0.25 -2.32,-0.41 -3.47,-0.582 -3.78,0 -8.52,0.723 -11.71,-0.508 -1.56,-0.218 -3.12,-0.379 -4.73,-0.601 -1.13,-0.188 -2.31,-0.379 -3.48,-0.52 -1.15,-0.211 -2.35,-0.418 -3.49,-0.59 -1.77,-0.179 -3.51,-0.328 -5.309,-0.578 -2.422,0.039 -5.09,-0.062 -7.032,-1.07 -1.55,-0.191 -3.089,-0.461 -4.668,-0.59 -2.64,0 -5.64,0.117 -7.632,-1.121 -2.5,0 -5.098,-0.039 -6.989,-1.129 -2.011,0 -4.351,-0.25 -5.871,-1.133 -1.847,0 -3.871,-0.308 -5.289,-1.148 -1.121,-0.199 -2.34,-0.36 -3.469,-0.641 -3.043,0.039 -7.031,-0.84 -9.441,-2.187 -1.898,0 -3.789,-0.34 -5.27,-1.172 -6.101,0 -11.41,-2.762 -16.55,-4.762 -4.032,-1.5 -8.102,-2.969 -12.102,-4.449 -7.859,0.043 -16.219,-7.219 -21.976,-12.02 -5.063,-4.168 -11.602,-6.179 -16.622,-10.929 -13.859,-12.84 -22.179,-30.129 -29.109,-46.91"
         style="fill:#ffffff;fill-opacity:1;fill-rule:nonzero;stroke:none"
         id="path68" /><path
         d="m 912.609,323.91 c 3.621,1.5 7.172,2.988 10.801,4.578 7.168,2.082 14.59,3.453 22.141,5.063 14.019,3.008 27.687,6.711 41.719,9.679 3.492,0.192 6.921,0.45 10.359,0.7 5.471,0.98 10.801,2.359 16.511,2.859 7.42,0.25 14.8,0.512 22.22,0.75 8.93,0.66 17.96,2.57 26.99,3.191 8,0.559 16.04,0.872 23.89,1.848 7.09,1.184 14.17,2.301 21.19,3.512 2.34,0.129 4.65,0.32 6.9,0.519 10.92,1.75 21.43,4.36 31.81,6.782 3.6,0.859 6.98,1.238 10.39,2.218 10.02,2.93 19.75,6.903 29.47,9.969 8.19,2.684 16.08,5.192 23.77,8.621 6.63,3.071 12.2,7.332 18.42,11.199 11.04,6.93 23.13,14.332 29.99,26.051 3.07,5.153 5.87,12.813 6.81,18.942 0.24,2.898 0.47,5.82 0.66,8.808 2.09,12.621 1.78,26.481 1.63,39.672 0.24,4.668 0.39,9.399 0.65,14.07 -0.19,2.52 -0.31,5.09 -0.5,7.59 0,5.078 0,10.117 -0.01,15.207 -0.29,1.934 -0.54,3.934 -0.79,5.84 0.18,1.774 0.37,3.551 0.59,5.281 -0.22,1.731 -0.41,3.512 -0.68,5.27 0.09,3.492 1.06,6.293 1.06,9.941 0.02,3.981 -0.97,6.801 -1.06,10.602 -0.02,4.406 1.13,7.699 1.28,12.226 0.24,15.372 0.11,30.512 0.67,45.653 -0.16,3.711 -0.26,7.39 -0.39,11.078 0.07,13.492 0.16,26.941 0.2,40.34 0.78,36.691 0.3,75.812 1.14,112.461 -0.24,3.84 -0.41,7.761 -0.67,11.64 -0.17,1.2 -0.33,2.309 -0.47,3.52 0.19,2.871 0.83,6.16 0.73,9.351 -0.26,2.161 -0.52,4.27 -0.73,6.438 0.11,3.031 0.9,6.062 0.85,9.383 -0.07,6.769 -1.67,12.488 -1.63,19.308 0.02,4.66 0.71,8.641 0.99,12.86 -0.02,2.148 -0.1,4.332 -0.18,6.429 0.33,2.141 0.61,4.332 0.95,6.481 -0.25,2.512 -0.54,5.039 -0.91,7.601 0.37,2.899 0.66,5.809 0.94,8.707 -0.09,2.672 -0.9,4.864 -0.9,7.68 0.08,15.942 0.19,31.961 0.28,47.934 0.05,3.679 1,6.488 1.06,9.988 0.16,3.48 -0.92,6.07 -0.81,9.359 0.26,1.743 0.57,3.5 0.81,5.282 0.3,5.281 0.57,10.5 0.89,15.781 -0.18,8.039 -0.22,16.808 -0.52,25.178 -0.37,2.67 -0.68,5.45 -1.04,8.17 -0.05,6.62 1.17,12.37 1.04,18.75 -0.26,4.87 -0.55,9.68 -0.84,14.57 0.21,37.73 -1.24,73.9 0.16,111.27 0.13,20.44 0.25,40.87 0.31,61.35 0.45,11.12 -0.4,23.23 -0.53,34 -0.09,10.96 0.13,20.92 0.22,32.15 -0.22,0 -0.41,0 -0.61,0 0,1.25 -5.53,0.51 -6.44,0.02 -10.9,0.16 -21.84,0.32 -32.68,0.49 -7.12,0.62 -14.19,1.05 -21.7,1.02 -2.13,0 -4.72,0.25 -6.47,-0.56 -2.66,-0.26 -5.43,-0.56 -8.17,-0.83 -3.9,0.49 -7.81,0.99 -11.72,1.49 -13.68,0.1 -27.31,0.16 -40.96,0.29 -3.81,0 -13.76,1.18 -16.34,0.07 -7.04,0.06 -14.09,0.18 -21.07,0.21 -5.32,0.36 -12.98,2.65 -18.22,0.6 -1.48,-0.24 -3.1,-0.37 -4.63,-0.6 -5.05,0.07 -10.14,0.16 -15.22,0.23 -7.55,0.51 -14.93,1.74 -22.81,1.79 -5.82,-1.68 -14.25,1.12 -19.92,-1.06 -1.52,-0.22 -3.1,-0.41 -4.64,-0.6 -6.02,0 -12.1,0.12 -18.16,0.12 -2.899,0.05 -6.969,0.56 -9.36,-0.51 -1.832,0 -4.41,0.15 -5.879,-0.61 -5.043,0.07 -9.261,1.05 -14.089,1.24 -11.993,0.04 -24.114,0.14 -36.18,0.27 -4.41,0 -10.902,0.95 -14.652,-0.53 -1.34,-0.18 -2.739,-0.37 -4.098,-0.55 -1.813,-0.2 -3.524,-0.36 -5.274,-0.58 -6.82,0.04 -18.109,3.65 -23.957,1.32 -1.25,-0.19 -2.332,-0.37 -3.543,-0.56 -2.558,0 -5.636,0 -7.609,-1.17 -17.437,0.13 -34.859,0.25 -51.539,0.56 -4.391,0.17 -9.078,-0.07 -13.422,-0.07 -2.09,0.04 -5.168,0.87 -7.008,-0.08 -4.351,0.08 -8.558,0.15 -12.898,0.22 -5.953,0.39 -19.141,2.73 -24.57,0.57 -3.922,0.07 -7.793,0.16 -11.661,0.16 -2.621,0.2 -5.761,0.96 -8.269,0 -3.461,0 -8.082,0.61 -11.094,-0.57 -6.969,0.04 -13.098,1.28 -20.457,1.31 -2.34,0 -5.07,0.26 -7.019,-0.56 -4.34,0.02 -10.43,1.02 -14.043,-0.52 -6.661,0.03 -13.289,0.06 -19.911,0.15 -3.117,0 -7.398,0.58 -9.918,-0.54 -8.41,-0.07 -16.789,-0.07 -25.16,-0.14 -5.308,0.42 -15.601,2.36 -20.492,0.42 -5.269,0.01 -14.398,1.83 -18.726,0.11 -11.114,0.03 -21.274,0.71 -32.243,1.42 -3.839,0.3 -9.781,1.62 -13.429,0 -2.149,0 -4.61,0.24 -6.418,-0.6 -4.223,0.06 -9.91,0.9 -13.481,-0.48 -3.66,0 -9.332,0.96 -12.312,-0.53 -13.821,0.09 -28.5,0.73 -43.25,0.85 -4.309,0.05 -10.449,0.94 -14.047,-0.51 -5.32,0.03 -17,1.15 -21.063,-0.44 -3.097,0 -8.558,0.83 -10.57,-1.1 -3.309,-3.14 -1.469,-18.49 -1.398,-23.46 -0.102,-3.89 -0.25,-7.77 -0.442,-11.72 0.11,-3.55 0.641,-7.21 0.231,-11.07 0,-5.48 0.031,-10.9 0.07,-16.44 -0.578,-14.86 -0.711,-29.15 -0.828,-44.44 0,-4.18 -1.043,-7.24 -1.16,-11.11 -0.172,-4.05 0.726,-7.98 0.687,-11.67 -0.5,-3.74 -0.91,-7.44 -1.437,-11.13 0.226,-7.81 0.379,-15.59 0.597,-23.35 -0.55,-13.31 -1.148,-27.57 -1.007,-41.62 0.179,-5.46 0.41,-10.9 0.597,-16.32 0.211,-1.79 0.481,-3.55 0.68,-5.27 -0.469,-3.34 -0.82,-6.68 -1.277,-9.97 0.25,-23.81 -0.454,-46.61 -0.543,-70.811 -0.079,-10.449 0.5,-20.187 0.293,-30.39 -0.372,-5.059 -0.762,-10.149 -1.141,-15.27 0.141,-7.578 0.32,-15.187 0.461,-22.82 -0.113,-15.129 -0.742,-30.809 -0.582,-46.238 0.262,-5.45 0.469,-10.922 0.699,-16.371 -0.34,-7 -0.699,-14.032 -1.109,-21.02 -0.121,-27.711 0.332,-56.43 0.582,-84.309 0.09,-6.921 -1.16,-12.73 -1.184,-19.871 -0.047,-7.441 -0.137,-14.84 -0.137,-22.199 0.207,-3.391 0.329,-6.672 0.438,-9.973 -0.5,-25.218 -1.348,-49.398 -1.52,-74.937 -0.05,-11.539 -1.3,-21.641 -1.339,-32.75 0,-4.84 0,-9.711 0.039,-14.57 0.203,-1.93 0.543,-3.922 0.793,-5.86 -0.321,-1.98 -0.641,-3.929 -0.903,-5.871 -0.301,-5.629 -0.64,-11.621 -0.668,-16.949 -0.051,-6.871 0.11,-14.473 0.367,-21.66 0.204,-3.281 1.063,-6 1.063,-9.371 -0.051,-3.5 -1.063,-6.071 -1.063,-9.379 -0.027,-4.012 1.012,-6.93 1.012,-11.141 -0.23,-30.191 0.11,-59.351 13.86,-82.371 9.441,-15.668 26.839,-25.617 42.652,-32.43 10.949,-4.769 22.18,-10.16 34.109,-12.988 8.86,-2.082 17.547,-3.141 26.77,-4.742 7.051,-1.238 14.34,-3.07 21.719,-3.809 7,-0.57 13.98,-1.07 21.019,-1.59 15.051,-1.89 29.762,-4.539 45.102,-6.41 7.129,-0.359 14.339,-0.711 21.539,-1.031 3.109,-0.68 6.269,-1.34 9.379,-2.059 5.679,-0.109 11.363,-0.16 16.961,-0.308 6.082,-0.563 12.101,-1.113 18.128,-1.711 3.141,-0.16 6.231,-0.262 9.34,-0.352 2.762,-0.699 5.512,-1.308 8.293,-1.961 7.719,-1.199 14.918,-2.027 22.699,-3.527 2.391,-0.793 4.782,-1.57 7.219,-2.422 5.27,-1.527 10.082,-2.769 15.172,-4.769 7.348,-2.668 14.738,-5.352 22.09,-8.008 5.359,-2.703 10.699,-5.344 16.09,-8.07 2.801,-1.93 5.738,-3.821 8.527,-5.75 5.91,-3.411 11.711,-6.262 17.07,-10.68 6.641,-5.371 11.141,-11.942 16.954,-18.152 1.867,-2.09 2.839,-4.848 5.386,-6.29 0,-0.96 0.332,-0.57 1.203,-0.57 0,0.949 2.957,2.828 3.75,3.828 1.219,1.883 2.399,3.774 3.661,5.602 12.769,18.719 31.777,32.14 51.117,42.39 2.953,1.02 5.851,2.141 8.89,3.18"
         style="fill:#0c2f59;fill-opacity:1;fill-rule:nonzero;stroke:none"
         id="path70" /><path
         d="m 916.012,1215.26 c 0,-0.19 0,-0.38 0,-0.59 -0.59,0 -1.203,0 -1.762,0 -0.039,1.97 -0.051,3.91 -0.148,5.82 0.878,5.82 5.679,8.5 9,12.87 6.207,-5.4 -3.391,-14.15 -7.09,-18.1"
         style="fill:#ffffff;fill-opacity:1;fill-rule:nonzero;stroke:none"
         id="path72" /><path
         d="m 946.371,1264.04 c 2.449,2.62 3.82,5.82 5.981,8.74 1.839,1.84 3.679,3.6 5.578,5.5 4.211,-0.46 8.121,-1.1 12.808,-1.32 0,-0.58 0,-1.1 0,-1.76 -6.207,0.03 -22.84,-20.58 -26.718,-25.81 -1.801,-2.46 -3.95,-7.29 -6.75,-8.78 -1.719,-0.85 -3.75,-0.15 -5.149,0.68 -3.98,2.51 -0.973,6.82 0.149,9.75 0.742,1.79 0.902,3.93 2.492,5.27 1.609,0.8 3.136,1.56 4.75,2.43 2.297,1.72 4.566,3.46 6.859,5.3"
         style="fill:#ffffff;fill-opacity:1;fill-rule:nonzero;stroke:none"
         id="path74" /><path
         d="m 906.672,1249.91 c 0.957,3.04 0.957,6.28 2.43,9.04 1.828,3.59 6.359,4.49 9.117,7.06 2.5,2.3 3.019,5.46 5,7.96 2.051,2.69 4.922,3.14 7.769,4.41 2.313,0 4.66,-0.02 6.981,-0.02 0,-2.94 -3.797,-5.89 -5.231,-8.24 -1.929,-3.16 -3.828,-6.54 -5.789,-9.64 -2.238,-3.01 -4.551,-6.12 -6.898,-9.18 -1.512,-2.43 -2.051,-5.12 -3.961,-7.3 -1.481,-1.11 -2.891,-2.25 -4.301,-3.34 -1.301,-1.48 -2.578,-2.93 -3.859,-4.27 -1.309,-1.22 -2.621,-2.47 -3.91,-3.69 -2.399,-2.89 -2.399,-7.15 -5.559,-9.6 -2.84,-2.2 -7.883,-3.71 -11.699,-2.4 -0.383,0 -0.821,0 -1.192,0 0.032,1.77 7.692,13.69 9.45,15.17 1.628,1.42 3.96,1.5 5.25,3.37 1.171,1.71 0.96,3.78 1.96,5.52 1.2,2.08 3.559,2.79 4.442,5.15"
         style="fill:#ffffff;fill-opacity:1;fill-rule:nonzero;stroke:none"
         id="path76" /><path
         d="m 862.289,1258.16 c 0.723,2.86 3.492,4.8 4.32,7.72 1.012,3.39 -0.238,6.25 2.192,9.03 2.449,2.84 17.508,0.51 22.41,3.14 3.148,-0.06 6.199,-0.06 9.301,-0.08 0,-0.38 0,-0.79 0,-1.2 -0.883,0 -0.883,-0.45 -1.274,-1.04 -4.597,-6.43 -6.929,-13.9 -10.148,-20.99 -1.461,-2.59 -2.949,-5.11 -4.418,-7.78 -1.184,-2.76 -2.352,-5.61 -3.543,-8.4 -3.039,-5.69 -10.57,-15.32 -17.188,-16.59 0,0.18 0,0.42 0,0.64 -1,0 -0.671,5.35 -0.82,6.38 -0.461,2.59 -1.473,4.74 -1.141,7.67 0.29,3.17 1.961,5.27 1.918,8.73 -0.117,4.31 -2.668,8.46 -1.609,12.77"
         style="fill:#ffffff;fill-opacity:1;fill-rule:nonzero;stroke:none"
         id="path78" /><path
         d="m 815.781,1277.77 c 2.129,2.3 10.617,0.84 13.989,1.77 3.699,-1.24 13.082,-1.08 17.55,-1.26 0.078,-2.59 0.18,-5.1 0.258,-7.71 0.492,-1.91 0.934,-3.85 1.363,-5.79 -0.382,-2.08 -0.73,-4.3 -1.101,-6.39 -0.18,-9.3 -1.379,-18.52 -1.86,-27.52 0.329,-5.63 0.641,-11.28 0.95,-17 -0.149,0 -0.391,0 -0.578,0 0,0.21 0,0.4 0,0.6 -7.442,0.08 -16,22.82 -18.981,28.02 -1.68,2.9 -4.262,4.75 -6.23,7.56 -4.2,5.82 -11.789,20.89 -5.36,27.72"
         style="fill:#ffffff;fill-opacity:1;fill-rule:nonzero;stroke:none"
         id="path80" /><path
         d="m 768.461,1273.33 c 0,0.11 0.051,0.24 0.059,0.39 1.218,3.58 10.46,3.58 13.82,5.53 3.422,0 7.922,0.58 10.73,-0.79 8.309,-4.11 11.102,-16.26 14.469,-23.88 2.121,-4.95 5.031,-9.79 7.402,-14.71 1.61,-2.66 3.149,-5.22 4.68,-7.85 1.051,-2.66 1.438,-5.53 1.527,-8.58 0.063,-2.22 0.422,-6.32 -1.617,-7.35 -1.652,-0.93 -4.152,-0.5 -5.761,0.17 -3.071,1.16 -45.141,53.39 -45.348,56.1 0,0.11 0,0.31 0,0.48 0,0.16 0.039,0.34 0.039,0.49"
         style="fill:#ffffff;fill-opacity:1;fill-rule:nonzero;stroke:none"
         id="path82" /><path
         d="m 745.461,1278.86 c 4.398,-0.74 6.98,-1.97 10.18,-5.14 4.609,-4.5 8.589,-9.88 12.3,-15.09 1.911,-2.66 2.957,-5.61 5.239,-8.28 2.929,-3.09 5.851,-6.19 8.8,-9.26 2.579,-3.36 5.161,-6.56 7.731,-9.84 0.961,-1.44 1.828,-2.82 2.801,-4.23 1.84,-1.69 3.769,-3.29 5.629,-4.9 3.918,-3.76 7.488,-8.48 9.531,-13.29 -0.922,0.03 -0.883,-0.92 -1.141,-1.68 -3.222,0 -7.101,1.11 -9.383,2.94 -3.75,3.78 -7.519,7.71 -11.32,11.52 -2.379,2.4 -5.238,3.34 -7.289,6.13 -4.019,5.38 -7.051,11.8 -12.027,16.66 -2.821,2.75 -6.91,3.32 -9.821,6.08 -0.05,0.07 -0.132,0.14 -0.222,0.26 -3.02,3.12 -4.149,7.39 -6.758,10.83 -2.922,3.88 -7.25,6.57 -10.012,10.39 -0.097,0.22 -0.269,0.51 -0.418,0.75 -0.031,0.17 -0.07,0.29 -0.101,0.43 -0.532,3.33 4.14,4.63 6.281,5.72"
         style="fill:#ffffff;fill-opacity:1;fill-rule:nonzero;stroke:none"
         id="path84" /><path
         d="m 876.449,1157.01 c 1.699,-0.22 3.36,-0.44 5.012,-0.67 5.078,-1.77 9.418,-9.21 7.551,-14.57 -1.051,-2.86 -4.242,-5.37 -6.692,-7.24 -1.679,-1.34 -4.148,-3.33 -6.621,-3.11 -3.359,0.31 -1.898,7.55 -1.078,9.51 1.188,2.69 4.168,3.38 4.399,6.71 0.3,3.91 -2.571,5.65 -2.571,9.37"
         style="fill:#ffffff;fill-opacity:1;fill-rule:nonzero;stroke:none"
         id="path86" /><path
         d="m 884.672,1181.05 c -1.961,-1.26 -4.274,-4.46 -6.844,-4.16 -3.598,0.46 -5.078,5.15 -7.43,7.33 -2.609,2.45 -8.027,3.69 -7.277,8.47 0.301,1.91 1.969,2.9 3.629,3.56 0,0.15 0,0.36 0,0.56 3.898,-0.76 6.602,-2.77 10.148,-4.26 4.063,-1.68 8.211,-2.63 12.403,-4.27 0.89,-0.29 1.301,-1.32 0.937,-2.27 -0.808,-2.5 -3.519,-3.73 -5.566,-4.96"
         style="fill:#ffffff;fill-opacity:1;fill-rule:nonzero;stroke:none"
         id="path88" /><path
         d="m 877.07,1108.57 c -0.789,-4.28 -10.519,-6.05 -13.871,-3.99 -4.961,3.09 4.5,9.21 6.602,10.87 2.488,-0.68 7.898,-3.48 7.269,-6.88"
         style="fill:#ffffff;fill-opacity:1;fill-rule:nonzero;stroke:none"
         id="path90" /><path
         d="m 851.559,1112.28 c -1.649,-0.35 -2.52,1.17 -3.649,1.9 -1.289,0.85 -2.879,1.12 -4.082,2.42 -2.976,3.31 -2.078,6.83 -2.258,11.32 -0.148,2.32 -0.539,5.16 0.34,7.28 0.711,1.92 2.531,2.78 4.051,3.83 1.879,-0.12 3.41,-0.24 4.891,-1.15 1.628,-1.03 13.527,-12.46 13.726,-13.71 0.793,-4.4 -9.457,-11.16 -13.019,-11.89"
         style="fill:#ffffff;fill-opacity:1;fill-rule:nonzero;stroke:none"
         id="path92" /><path
         d="m 920.352,1149.73 c 0,-4.26 -2.223,-8.8 -5.954,-10.48 -0.027,-0.9 -2.078,0.32 -2.968,0.59 0.031,4.21 5.531,7.36 8.351,9.89 0.16,0 0.367,0 0.571,0"
         style="fill:#ffffff;fill-opacity:1;fill-rule:nonzero;stroke:none"
         id="path94" /><path
         d="m 909.32,1157.29 c -1.461,-1.06 -2.8,-2.33 -4.789,-2.29 -2.051,0.03 -2.859,1.34 -3.441,3.02 -0.539,1.5 -0.36,20.4 0.14,22.04 0.641,2.07 3.79,3.78 5.219,5.41 4.41,-1.36 4.211,-4.07 5.699,-7.98 2.743,-7.32 4.723,-14.64 -2.828,-20.2"
         style="fill:#ffffff;fill-opacity:1;fill-rule:nonzero;stroke:none"
         id="path96" /><path
         d="m 902.039,1123.46 c 0.531,0 0.359,-0.13 -0.027,-0.59 0,-2.66 -7.563,-7.42 -9.91,-5.1 -3.364,3.22 0.769,6.55 2.918,8.64 3.101,-0.22 5.371,-0.35 7.019,-2.95"
         style="fill:#ffffff;fill-opacity:1;fill-rule:nonzero;stroke:none"
         id="path98" /><path
         d="m 848.512,1185.23 c 2.09,-0.23 4.109,-0.48 6.199,-0.72 3.617,-1.15 15.309,-10.56 14.039,-15.2 -1.121,-4.12 -4.969,-6.5 -7.941,-9.49 -3.079,-3.03 -6.848,-6.53 -11.25,-7.08 -4.399,-0.57 -10.649,18.96 -9.868,22.48 0.45,1.52 7.289,8.55 8.809,9.41 0,0.22 0,0.37 0.012,0.6"
         style="fill:#ffffff;fill-opacity:1;fill-rule:nonzero;stroke:none"
         id="path100" /><path
         d="m 834.879,1137.78 c -2.238,-1.97 -5.238,-5.38 -8.379,-5.6 -2.43,-0.16 -3.602,1.53 -5.172,2.93 -3.848,3.34 -6.609,10.2 -5.316,15.68 0.91,1.63 1.726,3.28 2.648,4.97 1.57,4.66 0.899,5.51 4.61,9.13 5.019,-2.34 19.46,-12.98 18.019,-19.81 -0.68,-2.9 -4.328,-5.51 -6.41,-7.3"
         style="fill:#ffffff;fill-opacity:1;fill-rule:nonzero;stroke:none"
         id="path102" /><path
         d="m 837.539,1105.71 c -0.168,0 -0.359,0 -0.578,0 0,-1.02 -2.141,-0.41 -2.891,-0.2 -8.832,1.83 -18.32,4.15 -11.058,14.89 1.449,-0.19 2.636,-0.26 3.679,-1.07 2.047,-1.56 2.661,-3.86 4.137,-5.78 2.274,-2.85 5.652,-4.32 6.711,-7.84"
         style="fill:#ffffff;fill-opacity:1;fill-rule:nonzero;stroke:none"
         id="path104" /><path
         d="m 797.051,1180.21 c 0.008,0 4.25,5.16 5.84,5.87 0,0.18 0,0.4 0,0.59 7.328,-4.81 13.339,-13.32 5.711,-21.08 -1.512,-1.6 -3.981,-3.66 -6,-3.95 -6.872,-1.03 -3.942,7.38 -4.071,10.96 -0.07,2.73 -0.851,5.22 -1.48,7.61"
         style="fill:#ffffff;fill-opacity:1;fill-rule:nonzero;stroke:none"
         id="path106" /><path
         d="m 810.531,1191.31 c 0,0.53 0,1.17 0,1.71 1.149,0.3 2.34,0.67 3.571,0.94 7.289,1.04 12.027,2.17 18.078,5.37 1.929,-0.5 4.91,-0.5 6.101,-2.39 3.34,-5.15 -12.152,-15.61 -16.633,-15.15 -5.027,0.56 -7.636,6.49 -11.117,9.52"
         style="fill:#ffffff;fill-opacity:1;fill-rule:nonzero;stroke:none"
         id="path108" /><path
         d="m 801.449,1142.76 c 1.121,-0.31 2.231,-0.68 3.321,-0.94 2.789,-1.73 13.05,-11.43 13.32,-14.48 0.34,-3.28 -8.27,-9.36 -11.039,-9.92 -2.34,-0.47 -2.981,1.87 -3.699,3.57 -2.723,6.67 -4.672,14.06 -1.903,21.77"
         style="fill:#ffffff;fill-opacity:1;fill-rule:nonzero;stroke:none"
         id="path110" /><path
         d="m 789.52,1148.92 c -5.692,-1.44 -4.469,9.58 -4.301,13.24 4.172,-1.41 12.722,-11.12 4.301,-13.24"
         style="fill:#ffffff;fill-opacity:1;fill-rule:nonzero;stroke:none"
         id="path112" /><path
         d="m 861.922,540.34 c 0,1.648 12.699,20.109 14.558,22.379 0.981,1.211 2.372,2.07 3.719,2.679 0,0.114 0,0.383 0,0.614 2.91,-0.043 5.86,-0.043 8.813,-0.043 -0.071,-3.617 -13.953,-24.047 -17.563,-25.598 -2.5,-1.141 -5.969,-0.582 -8.961,-0.672 0,0.18 0,0.422 0,0.641 -0.199,0 -0.429,0 -0.566,0"
         style="fill:#ffffff;fill-opacity:1;fill-rule:nonzero;stroke:none"
         id="path114" /><path
         d="m 772.691,542.102 c -3.25,-1.411 -8.191,-0.543 -12.019,-0.602 0.078,5.262 21.476,20.66 25.867,24.988 2.922,0 5.883,0 8.82,0 -0.031,-4.328 -18.449,-22.629 -22.668,-24.386"
         style="fill:#ffffff;fill-opacity:1;fill-rule:nonzero;stroke:none"
         id="path116" /><path
         d="m 932.32,426.602 c -3.711,-1.672 -8.851,1.617 -10.922,4.32 -2.257,3.008 -3.039,6.59 -4.218,10.148 -1.852,5.508 -3.68,11.328 -5.871,16.84 -1.457,3.668 -4.27,8.66 -3.75,13.02 0.371,2.73 2.98,3.859 4.863,5.269 1.68,-0.429 2.906,-0.918 3.887,-2.41 1.121,-1.73 1.511,-3.668 2.23,-5.648 1.813,-5.493 3.609,-10.813 5.172,-16.403 1.801,-6.41 4.578,-12.918 7.277,-18.867 0.41,-1.031 3.332,-5.461 1.332,-6.269"
         style="fill:#ffffff;fill-opacity:1;fill-rule:nonzero;stroke:none"
         id="path118" /><path
         d="m 912.691,566.699 c 2.77,-3.949 19.508,-22.437 18.547,-25.918 -0.289,-0.902 -1.316,-0.992 -2.129,-1.133 -5.031,-0.089 -10.089,-0.16 -15.129,-0.199 -8.96,0.039 -17.941,0.11 -26.878,0.141 0,0.199 0,0.34 0,0.621 -0.211,0 -0.473,0 -0.602,0 0,1.918 1.57,3.687 2.352,5.238 2.789,5.289 13.839,20.192 13.07,25.59 -0.184,1.789 -1.531,3.133 -3.16,3.711 -7.071,2.461 -15.532,0.371 -23.25,0.629 -4.063,0.18 -13.332,2.293 -16.91,0.641 -7.661,0.058 -34.442,3.851 -37.582,-2.911 -0.79,-1.597 0.281,-3.519 0.968,-4.898 3.082,-6.223 7.922,-11.871 12.082,-17.449 2.219,-3.453 4.5,-6.903 6.739,-10.301 0,-0.231 0,-0.371 0,-0.602 -0.559,-0.211 -1.149,-0.371 -1.731,-0.629 -16.449,0.141 -32.848,0.809 -49.148,0.891 0,0.391 0,0.777 0,1.18 0.531,0 23.949,28.211 26.511,31.461 0,0.75 -0.152,0.75 -0.632,1.168 -2.848,0.34 -5.84,0.781 -8.719,1.109 -4.891,0.262 -9.719,0.5 -14.668,0.742 -13.953,0.297 -28.703,-0.48 -42.07,0.821 0,1.66 19.937,20.898 22.628,23.628 16.95,17.809 34.61,34.961 52.329,52.36 6.089,6.32 12.152,12.48 18.211,18.68 1.968,1.91 3.8,4.011 6.289,4.82 0,0.371 0,0.859 0,1.211 3.972,-2 7.39,-6.031 10.601,-9.301 5.289,-5.398 10.578,-10.93 15.82,-16.34 3.34,-3.109 6.641,-6.172 10,-9.351 15.059,-15.649 31.09,-30.45 46.43,-45.981 6.309,-6.359 14.578,-12.887 19.512,-20.25 -1.133,-0.18 -2.301,-0.379 -3.481,-0.539 -4.851,0 -9.742,0.02 -14.64,0.063 -1.801,0.078 -4.129,0.589 -5.832,0 -6.649,0.078 -14.528,0.937 -19.949,-1.571 -0.02,-2.519 3.031,-5.34 4.421,-7.332"
         style="fill:#ffffff;fill-opacity:1;fill-rule:nonzero;stroke:none"
         id="path120" /><path
         d="m 747,500.328 c 2.352,4.07 47.449,0.602 55.012,0.563 11.609,-0.063 21.949,1.57 33.34,1.539 15.199,-0.071 31.347,-1.27 46.808,-1.27 7.852,-0.058 16.481,0.192 24.578,0.442 18.481,0.488 37.571,-0.411 55.563,-0.442 0.07,0.141 0.07,0.371 0.07,0.559 0.91,0 1.02,5.191 1.02,6.41 0.031,11.691 0.289,23.91 0.347,36.301 0.043,8.429 -0.207,17.011 1.25,24.57 9.582,-5.039 8.434,-17.039 8.723,-27.57 0.18,-6.469 0.598,-14.051 0.367,-21.02 -0.367,-3.781 -0.707,-7.441 -1.078,-11.191 -0.289,-5.559 1.359,-11.84 -0.73,-16.949 0,-0.329 0,-0.758 0,-1.18 -0.2,0 -0.418,0 -0.629,0 0,1.129 -3.621,0.648 -4.68,0.648 -9.27,0.043 -17.961,-0.476 -27.539,-0.359 -4.113,0 -9.902,0.84 -13.41,-0.559 -3.5,0 -8.114,0.692 -11.153,-0.531 -10.73,0.07 -20.949,0.102 -31.57,0.801 -4.711,0.39 -11.23,2.519 -15.758,0.648 -7.902,0 -15.621,0.602 -23.429,0.422 -1.75,-0.09 -3.852,0.41 -5.282,-0.219 -4.441,0 -14.25,1.668 -17.57,0.028 -2.59,0 -5.48,0.301 -7.629,-0.559 -7.391,0.102 -14.84,0.149 -22.199,0.27 -4.402,0.261 -9.363,0.39 -14.051,0.59 -1.562,0 -3.141,0 -4.723,0 -1.75,-0.2 -3.468,-0.329 -5.277,-0.59 -8.633,0.058 -15.562,-2.02 -19.711,5.41 -0.398,0.699 -1.18,2.308 -0.66,3.238"
         style="fill:#ffffff;fill-opacity:1;fill-rule:nonzero;stroke:none"
         id="path122" /><path
         d="m 970.09,354.219 c -1.719,-2.449 -6.93,-3.117 -9.84,-3.489 0.148,14.61 -0.68,30.282 -0.141,45.161 0.141,4.269 -0.629,9.218 0.289,13.257 0.321,1.422 1.071,2.063 2,3.032 3.024,-0.02 5.84,0 8.204,-1.231 0.839,0 1.039,-6.23 0.828,-7.59 -0.442,-3.129 0.281,-6.379 0.281,-9.918 -0.07,-5.32 -0.902,-9.98 -0.652,-15.211 0.371,-5.41 1.941,-19.91 -0.969,-24.011"
         style="fill:#ffffff;fill-opacity:1;fill-rule:nonzero;stroke:none"
         id="path124" /><path
         d="m 1145.92,373.109 c -1.95,0 -4.33,-0.269 -5.87,-1.187 -2.88,0.117 -8.8,-1.512 -11.09,-2.801 -5.34,0 -9.93,-2.223 -14.71,-3.141 -3.32,-0.64 -6.84,-1.269 -9.9,-1.839 -2.33,-0.262 -5.04,-0.192 -7.02,-1.262 -1.39,-0.199 -2.78,-0.379 -4.12,-0.59 -1.33,-0.16 -2.73,-0.391 -4.14,-0.539 -3.48,0.031 -7.81,0.539 -10.49,-1.102 -1.39,-0.199 -2.73,-0.418 -4.13,-0.57 -5.67,0 -12.57,0.891 -16.93,-1.719 -2.15,0 -4.69,0.25 -6.45,-0.48 -2.73,0 -4.7,0.582 -7.03,1.16 0,-1.16 -7.05,-2.168 -8.22,-2.891 -3.92,0.043 -8.88,0.762 -12.27,-0.476 -1.34,-0.242 -2.7,-0.383 -4.07,-0.563 -3.92,0.032 -8.61,0.442 -11.77,-1.078 -2.59,0.02 -5.49,-0.14 -7.57,-1.16 -3.82,0 -13.511,-1.012 -15.781,0.891 -3.82,2.937 -1.711,40.187 -1.558,47.129 -0.153,3.597 -0.34,7.097 -0.41,10.668 -0.153,3.621 1.109,16.101 -5.313,14 -3.59,0 -11.277,0.863 -13.969,-0.489 -3.847,0.039 -14.109,-0.789 -16.359,1.352 -4.039,3.769 -6.238,17.656 -8.289,23.277 -3.199,8.129 -8.332,16.36 -9.441,25.313 -0.11,0.968 -0.329,2.5 0.261,3.218 1.668,2.008 9.438,1.641 12.438,1.641 6.91,-0.062 38.261,-0.109 40.801,4.25 1.609,2.879 0.98,12.078 0.691,15.699 0.18,5.641 0.48,11.282 0.711,17.008 0.258,8.711 -1.684,18.844 0.93,26.902 19.908,-21.539 42.548,-41.269 63.078,-62.66 1.92,-2.441 3.78,-4.789 5.69,-7.191 5.14,-5.168 10.87,-9.731 16.14,-14.949 14.19,-13.899 27.34,-28.961 41.17,-42.93 10.65,-10.77 21.73,-21.281 32.39,-32.012 2,-1.976 5.41,-4.218 6.3,-6.929 0.79,-2.09 -2.65,-3.11 -3.7,-3.95"
         style="fill:#ffffff;fill-opacity:1;fill-rule:nonzero;stroke:none"
         id="path126" /><path
         d="m 1107.28,928.891 c 3.23,3.781 6.44,7.648 9.69,11.398 3.79,3.922 8.19,7.051 12.04,10.731 5.14,5.218 10.17,10.441 15.33,15.671 5.78,5.528 11.55,11.11 17.34,16.68 11.32,11.688 22.57,23.419 33.88,35.129 17.36,16.6 35.05,32.95 51,50.82 4.11,4.59 10.18,8.45 13.38,13.56 2.84,-3.98 0.8,-14.38 1.14,-19.93 0.76,-12.9 0.07,-26.88 0.26,-40.36 0.31,-6.82 0.6,-13.63 0.91,-20.42 -0.41,-7.049 -0.71,-14.1 -1.13,-21.092 0.33,-4.098 0.59,-8.25 0.94,-12.297 -0.12,-2 -0.22,-3.883 -0.29,-5.832 0.22,-2.371 0.48,-4.687 0.66,-7.078 -0.23,-1.973 -0.49,-3.859 -0.83,-5.832 -0.88,-10.777 -0.96,-21.617 -0.84,-32.777 0.53,-5.66 1.08,-11.301 1.55,-16.973 -0.32,-3.141 -0.66,-6.25 -1.06,-9.34 -0.06,-7 -0.13,-14.039 -0.17,-21.109 -0.19,-2.309 -0.32,-4.668 -0.41,-7.012 0.09,-4.449 1.2,-9.129 1.17,-13.398 -0.19,-6.211 -1.69,-12.801 -1.59,-19.352 0.51,-8.008 1.04,-16.008 1.59,-23.976 -0.35,-4.922 -0.72,-9.75 -1.12,-14.633 0.27,-1.828 0.4,-3.539 0.65,-5.36 0.12,-5.238 -0.38,-10.539 -0.61,-15.66 0.27,-3.769 0.58,-7.5 0.8,-11.23 0,-2.809 -0.73,-5.508 -0.92,-8.129 -0.39,-5.641 -0.05,-11.281 0.61,-16.469 1.03,-8.101 0.69,-18.652 -0.13,-26.871 -0.26,-1.949 -0.58,-3.891 -0.87,-5.852 -0.29,-4.898 0.94,-9.238 0.87,-14.046 -0.36,-2.762 -0.71,-5.454 -1.06,-8.133 0.09,-2.899 0.32,-5.84 0.38,-8.77 -0.12,-3.918 -0.38,-7.859 -0.56,-11.738 -0.07,-3.711 2.26,-24.742 -1.26,-24.742 -2.22,0.043 -20.89,20.39 -24.03,23.531 -23.3,23.629 -46.97,47.578 -70.11,71.031 -3.67,3.731 -6.84,8.098 -10.41,11.649 -3.33,3.179 -6.62,6.34 -9.97,9.48 -1.66,2 -3.42,3.988 -5.06,5.969 -22.42,22.09 -45.14,44.449 -67.6,66.473 -4.03,3.91 -33.18,33.128 -33.28,35.07 0.12,0.539 0.2,1.109 0.24,1.609 2.3,5.508 11.41,11.641 16.02,16.008 4.95,4.75 8.59,10.012 13.29,14.813 4.15,4.296 8.78,8.468 13.01,12.699 1.59,1.308 3.12,2.629 4.77,4.019 3.65,3.782 7.23,7.508 10.94,11.289 3.59,3.582 7.19,7.141 10.85,10.782"
         style="fill:#ffffff;fill-opacity:1;fill-rule:nonzero;stroke:none"
         id="path128" /><path
         d="m 972.738,1254.88 c 1.883,1.43 3.981,1.83 5.684,3.7 1.187,1.78 2.406,3.58 3.566,5.33 3.133,4.63 6.383,8.47 10.242,12.54 1.36,1.26 2.75,2.49 4.141,3.76 2.52,1.39 6.919,0.7 10.089,0.7 6.7,-0.07 13.29,0.27 19.32,0.9 3,0.35 5.68,0.16 8.19,1.24 4.48,-0.04 8.94,-0.16 13.46,-0.23 5.04,-0.55 10.4,-1.8 15.82,-1.8 4.75,-0.07 8.83,1.7 13.42,1.57 1.58,-0.29 3.17,-0.51 4.71,-0.78 5.62,-0.63 12.73,-0.63 17.58,0.88 0,-0.19 0,-0.39 0,-0.53 0.15,0 0.35,0 0.61,0 0,-0.84 0.12,-0.64 -0.61,-0.64 -0.09,-0.31 -0.21,-0.61 -0.32,-0.93 -5.7,-7.55 -13.99,-13.3 -20.59,-19.7 -12.54,-12.24 -25.03,-24.57 -37.5,-36.86 -2.83,-2.89 -6.15,-5.08 -8.92,-7.94 -11.29,-11.57 -21.42,-24 -32.97,-34.98 -4.109,-4.08 -8.34,-8.1 -12.461,-12.09 -2.359,-2.02 -4.59,-4.02 -6.918,-5.98 -2.609,-3.12 -5.203,-6.15 -7.742,-9.2 -6.969,-7.39 -14.379,-14.52 -21.84,-21.46 -3.48,-4.16 -6.988,-8.21 -10.461,-12.37 -7.758,-7.52 -15.5,-14.99 -23.148,-22.48 -13.231,-12.93 -26.199,-26.25 -39.442,-39.04 -4.386,-4.16 -8.238,-9.31 -13.109,-12.59 0,-0.18 0,-0.42 0,-0.64 -0.199,0 -0.379,0 -0.57,0 0,0.22 0,0.46 0,0.64 -0.188,0 -0.379,0 -0.629,0 0.219,1.72 0.39,3.5 0.558,5.24 0.071,4.05 -0.679,8.13 -0.277,12.3 0.5,2.14 1.008,4.29 1.469,6.44 0.289,4.03 -1.149,7.35 0.738,10.81 1.172,2.19 3.852,3.08 5.613,4.76 3.36,3.32 5.348,7.58 9.411,10.31 4.296,2.84 9.636,3.68 14.226,5.86 2.902,1.5 5.293,4.04 8.063,5.77 6.238,4.06 13.468,7.57 18.148,13.95 1.25,2.6 2.551,5.14 3.801,7.66 1.551,2.25 3.16,4.5 4.699,6.72 1.211,3.04 1.031,6.46 1.91,9.73 1.172,4.36 3.43,8.39 3.539,13.56 -0.519,4.47 -1.097,8.96 -1.636,13.45 -0.614,5.78 -3.864,10.99 -7.332,15.34 -1.469,1.87 -3.239,3.63 -4.149,5.83 -1.121,0 0,1.49 0.34,2.12 0.937,1.35 1.867,2.67 2.777,3.92 4.051,6.05 8.153,12.59 14.172,17.05 3.031,2.28 3.488,5.51 5.781,8.27 2.778,3.27 6.899,4.98 9.75,8.37 1.457,1.98 2.969,4.01 4.438,5.92 1.223,2.23 1.82,4.62 3.672,6.57 1.89,1.97 3.937,2.91 5.969,4.55 1.582,1.46 3.16,2.98 4.718,4.48"
         style="fill:#ffffff;fill-opacity:1;fill-rule:nonzero;stroke:none"
         id="path130" /><path
         d="m 633.691,1280.67 c 5.809,-0.08 12.969,-0.9 18.161,0.48 4.187,-0.82 8.918,-0.6 13.437,-0.66 3.582,-0.23 7.039,-0.46 10.582,-0.6 4.848,0 9.731,0 14.551,0 2.199,-0.44 4.348,-0.8 6.437,-1.19 4.469,0 9.75,2.96 14.121,1.51 5.149,-1.75 9.622,-7.58 13.559,-11.62 6.313,-6.19 12.539,-12.4 18.781,-18.54 4.16,-4.54 8.11,-9.67 12.321,-14.11 5.238,-5.37 10.961,-9.26 16.23,-14.8 3.149,-3.24 5.039,-6.87 8.09,-10.03 1.73,-1.39 3.519,-2.81 5.258,-4.13 3.39,-2.81 6.5,-6.56 8.383,-10.34 -1.852,0 -4.622,-4.03 -5.891,-5.29 -4.789,-5.09 -8.641,-10.21 -10.223,-16.97 -0.41,-2.68 -0.789,-5.36 -1.226,-8.02 -0.883,-4.34 -2,-8.59 -1.492,-13.45 0.789,-3.14 1.531,-6.29 2.308,-9.36 1.344,-3.23 2.684,-6.43 4.012,-9.62 1.672,-3.59 2.449,-7.36 4.859,-10.64 1.84,-2.43 4.879,-3.33 7.192,-5.06 2.289,-1.63 3.23,-4.44 5.519,-6.11 2.141,-1.07 4.34,-2.06 6.531,-3.02 3.02,-2.07 5.989,-4.08 8.989,-6.07 4.031,-2.52 8.89,-4.28 12.41,-7.6 2.332,-3.17 4.59,-6.36 6.879,-9.49 2.101,-2.59 5.492,-4.38 7,-7.41 0.972,-2.05 1.75,-4.92 1.883,-7.4 0.148,-2.26 -0.442,-4.84 0.07,-7.05 1.207,-5.13 3.328,-12.55 2.398,-18.07 -4.718,0 -14.5,11.82 -18.019,15.27 -7.27,6.82 -14.571,13.6 -21.813,20.4 -5.269,5.64 -10.578,11.28 -15.84,16.88 -10.457,10.9 -21.726,21.04 -32.046,31.78 -5.481,5.76 -11.153,11.43 -16.692,17.29 -2.269,2.63 -4.68,5.35 -7.051,8.13 -19.121,18.62 -38.07,37.26 -57.078,55.86 -5.043,5.5 -10.051,10.99 -15.179,16.4 -10.911,11.06 -21,22.03 -32.372,32.5 -5.652,5.24 -17.589,12.36 -19.589,19.69 8.078,-0.04 16.269,0.46 24.55,0.46"
         style="fill:#ffffff;fill-opacity:1;fill-rule:nonzero;stroke:none"
         id="path132" /><path
         d="m 510.281,704 c -8.519,-7.98 -15.472,-17.262 -23.89,-25.262 -12.301,-12.097 -24.629,-24.097 -36.969,-36.207 -4.063,-4.16 -9.961,-8.531 -13.031,-13.242 -0.153,0 -0.379,0 -0.582,0 -0.028,-1.211 -1.348,2.102 -1.489,2.93 -0.039,4.269 -0.148,8.601 -0.191,12.871 0.25,12.871 0.531,25.762 0.812,38.629 0.028,10.691 0.18,20.859 0.11,30.992 -0.11,3.519 -0.289,7.07 -0.422,10.539 0.23,9.602 0.762,20.25 0.672,30.391 -0.129,4.32 -0.332,8.648 -0.442,12.918 0.082,6.25 0.582,12.679 0.621,19.293 -0.179,3.929 -0.289,7.808 -0.511,11.738 0.121,11.101 0.152,22.23 0.203,33.32 -0.172,3.32 -0.313,6.641 -0.473,9.918 0.391,4.152 0.781,8.262 1.11,12.352 0.363,9.211 -0.618,17.941 -0.25,26.922 0.32,6.796 0.679,13.628 1.019,20.429 -0.187,14.731 -0.879,29.239 -0.476,43.91 0.41,7.039 0.839,14.028 1.296,21.09 -0.218,3.699 -0.527,7.399 -0.82,11.078 -0.129,14.961 0.402,30.151 0.242,44.451 -0.172,3.15 -0.351,6.29 -0.461,9.39 0.219,3.68 0.461,7.44 0.692,11.09 0.051,4.37 -0.781,8.46 -0.539,12.94 0.328,2.54 0.679,5.03 0.968,7.57 -0.109,6.96 -0.3,14.11 -0.289,21.06 5.957,-2.17 10.739,-8.81 15.348,-13.27 10.152,-9.84 20.199,-19.68 30.281,-29.5 3.461,-3.75 6.95,-7.43 10.43,-11.15 7.621,-7.14 15.211,-14.48 22.07,-22.35 2.309,-2.7 4.481,-5.44 7.2,-8.06 4.96,-4.729 10.332,-9.061 15.171,-14.089 2.098,-2.269 3.149,-4.703 5.411,-6.832 11.66,-11.109 24.058,-21.488 35.828,-32.679 11.261,-11.59 22.468,-23.219 33.691,-34.789 7.109,-6.75 52.027,-48.942 49.348,-55.43 -0.809,-1.231 -1.61,-2.473 -2.457,-3.691 -5.282,-9.02 -17.602,-19.168 -25.66,-26.5 -2.813,-2.469 -4.532,-5.848 -7.204,-8.641 -6.628,-6.699 -13.199,-13.098 -19.878,-19.82 -9.2,-9.11 -18.52,-18.18 -27.801,-27.27 -6.047,-6.148 -12.129,-12.418 -18.188,-18.57 -1.531,-1.821 -3.07,-3.578 -4.66,-5.34 C 540.84,732.879 525.59,718.23 510.281,704"
         style="fill:#ffffff;fill-opacity:1;fill-rule:nonzero;stroke:none"
         id="path134" /><path
         d="m 758.859,425 c -5.078,0 -21.918,1.148 -24.91,-0.852 -1.16,-0.796 -1.25,-2.289 -1.32,-3.636 -0.098,-15.621 -0.25,-31.242 -0.41,-46.864 0.09,-6.75 0.91,-16.57 -0.5,-23.289 -0.348,-1.64 -1.27,-3.14 -2.559,-4.187 0,-0.16 0,-0.371 0,-0.582 -4.808,0.058 -9.07,2.121 -13.531,2.781 -4.231,0.688 -8.688,-0.359 -12.801,-0.359 -3.09,0.488 -6.258,0.879 -9.387,1.238 -6.043,0.559 -12.089,1.141 -18.121,1.75 -2.359,0.262 -6.109,0.52 -8.16,-0.359 -13.969,0.089 -26.949,2.859 -40.371,4.168 -6.238,0.621 -12.277,0.562 -18.051,1.601 -4.886,0.828 -9.816,1.61 -14.687,2.442 -2.082,0.488 -4.301,0.918 -6.473,1.437 -3.098,0.16 -6.148,0.242 -9.277,0.461 -7.039,1.27 -14.11,2.539 -21.153,3.82 -5.359,0.731 -12.25,0.77 -16.847,3.141 -0.211,0 -0.391,0 -0.68,0 0,0.398 0,0.809 0,1.187 0.949,0 0.469,-0.238 0.867,0.422 3.153,5.02 9.203,10.328 13.692,14.399 4.101,4.062 8.109,8.179 12.25,12.351 6.23,6.18 13,11.782 19.39,18.051 3.141,3.078 6.282,6.168 9.442,9.199 2.527,2.86 5.136,5.782 7.758,8.66 16.109,15.418 32.55,30.391 48.269,46.52 9.711,9.879 18.68,20.301 28.633,29.859 13.828,13.301 27.519,26.25 40.656,40.172 3.813,3.867 7.692,7.867 11.512,11.828 2.531,-3.5 1,-17.031 0.609,-21.668 -0.648,-7.41 -0.777,-14.902 -0.847,-22.812 0,-4.957 -0.633,-10.16 0.898,-14.469 1.512,-4.16 4.441,-7.801 6.949,-11.512 1.34,-2.16 2.102,-4.949 4.59,-6.328 3.582,-1.98 14.859,-2.449 19.5,-2.242 8.289,0.332 16.84,0.922 25.82,0.863 -0.039,-5.691 -3.66,-12.679 -5.609,-17.691 -3.488,-8.891 -7.02,-17.719 -10.328,-26.719 -1.301,-3.34 -2.422,-7.859 -4.82,-10.609 -1.774,-1.902 -4.25,-0.692 -6.461,-1.582 -1.211,-0.231 -2.371,-0.32 -3.532,-0.59"
         style="fill:#ffffff;fill-opacity:1;fill-rule:nonzero;stroke:none"
         id="path136" /><path
         d="m 798.68,320.852 c -6.059,0.609 -11.7,4.918 -17.141,7.226 -4.34,1.781 -9.289,2.57 -13.269,5.024 -0.161,0 -0.372,0 -0.559,0 0,0.25 0,0.386 0,0.558 0.211,0 0.398,0 0.609,0 0,0.86 -0.211,0.649 0.551,0.649 8.551,-0.11 49.008,-1.571 52.668,2.011 1.832,1.789 1.801,9.27 1.801,12.289 0.109,18.86 -2.09,44.231 15.262,53.852 2.507,1.461 5.207,1.769 7.937,2.769 4.762,0 16.66,-1.769 16.051,-8.218 -0.102,-1.532 -1.942,-1.532 -3.281,-1.711 -11.52,-1.352 -13.719,-7.61 -18.457,-16.5 -3.84,-7.242 -3.262,-19.672 -3.454,-29.11 -0.218,-9.281 -0.648,-18.16 -0.738,-27.531 -0.18,0 -0.371,0 -0.558,0 0,-1.051 -5.75,0 -7.051,-0.512 -3.129,0 -5.942,-0.918 -8.742,-1.058 -7.239,0.082 -14.457,0.14 -21.629,0.262"
         style="fill:#ffffff;fill-opacity:1;fill-rule:nonzero;stroke:none"
         id="path138" /><path
         d="m 864.461,308.82 c -2.063,-2.461 -4.121,-4.851 -6.16,-7.379 -5.102,-5.171 -10.391,-9.953 -13.672,-16.191 -0.188,0 -0.328,0 -0.527,0 -3.614,4.031 -7.243,7.988 -10.832,12 -3.559,3.129 -10.68,7.211 -14.84,9.281 0,0.16 0,0.36 0,0.578 -0.149,0 -0.34,0 -0.551,0 0,0.153 0,0.34 0,0.563 0.211,0 0.402,0 0.551,0 0.05,1.008 0.98,0.629 1.769,0.75 2.129,0.476 4.301,0.937 6.492,1.328 6.86,0.281 13.661,0.512 20.489,0.602 0.269,1.226 0.582,2.41 0.922,3.589 0.277,2.957 0.519,5.887 0.777,8.789 -0.258,2.68 -0.609,5.45 -0.848,8.211 0.141,2.68 0.239,5.411 0.348,8.137 -0.008,5.863 -0.77,12.211 -0.277,18.16 0.707,3.293 1.41,6.672 2.117,9.981 0.722,4.031 1.84,8.953 4.633,11.929 2.789,3.161 6.707,2.864 10.32,4.313 1.117,-0.52 2.449,-1.152 2.918,-2.5 1.211,-3.902 0.262,-9.09 0.25,-13.332 0.121,-10.07 0.25,-20.168 0.262,-30.418 0.437,-2.352 1.957,-4.449 2.968,-6.563 1.442,-3.328 2.86,-6.546 4.321,-9.828 0.558,0 0.589,0.032 0.371,-0.461 -2.582,-4.859 -7.852,-8.121 -11.801,-11.539"
         style="fill:#ffffff;fill-opacity:1;fill-rule:nonzero;stroke:none"
         id="path140" /><path
         d="m 887.398,324.781 c -2.726,2.297 -4.687,7.617 -4.968,11.168 2.898,0 6.191,-0.219 8.8,0.531 6.758,0 13.411,-0.421 19.829,-0.699 0,-0.312 0,-0.781 0,-1.179 -2.137,0.039 -4.887,-1.704 -6.618,-2.5 -5.382,-2.43 -10.812,-4.821 -16.23,-7.243 0,-0.757 -0.289,-0.461 -0.813,-0.078"
         style="fill:#ffffff;fill-opacity:1;fill-rule:nonzero;stroke:none"
         id="path142" /><path
         d="m 684.961,805.219 c 0.109,5.32 1.117,10.84 1.219,16.332 -0.399,6.097 -0.711,12.058 -1.051,18.148 -0.168,10 1.051,19.621 1.242,29.25 -0.301,5.871 -0.59,11.762 -0.902,17.602 0.191,4.461 0.383,8.961 0.492,13.398 -0.301,4.473 -0.699,9.039 -1,13.531 0,7.282 2.18,13.622 2.348,21.051 -0.297,4.047 -0.629,8.188 -0.938,12.278 0.149,2.339 0.25,4.64 0.391,7 0.347,8.73 1.34,16.961 1.437,25.781 0.02,5.922 -0.961,15.09 0.621,20.308 1.532,5.422 17.539,23.642 23.078,25.792 0,0.15 0,0.37 0,0.52 1.18,-4.48 0.493,-10.54 0.051,-15.15 -0.648,-5.66 -0.969,-11.611 -0.758,-17.572 0.27,-3.898 0.618,-7.769 0.981,-11.726 0.019,-7.41 0.066,-14.84 0.109,-22.192 -0.25,-3.398 -0.519,-6.648 -0.793,-10.011 0.192,-3.93 0.274,-7.797 0.461,-11.7 -0.238,-10.347 -0.801,-22.14 -0.488,-32.781 0.301,-11.539 -1.27,-23.726 -0.973,-35.039 0.364,-4.32 0.703,-8.59 0.973,-12.898 0.07,-8.77 0.129,-17.59 0.219,-26.379 -0.282,-4.063 -0.66,-8.16 -0.969,-12.274 -0.051,-6.84 -0.07,-13.648 -0.07,-20.468 -0.082,-8.192 1.039,-22.758 -1.282,-29.598 -0.781,-2.242 -3.449,-3.641 -4.699,-5.512 -1.898,-2.59 -3.808,-5.238 -5.73,-7.84 -1.871,-1.851 -3.801,-3.64 -5.66,-5.398 -1.918,-3.742 -3.899,-7.5 -5.821,-11.16 -0.211,0 -0.34,0 -0.57,0 0,-0.242 0,-0.422 0,-0.602 -0.199,0 -0.438,0 -0.629,0 0.121,11.031 -1.609,22.899 -1.719,33.93 -0.109,6.531 0.989,13.582 1.348,19.871 0.301,4.84 -0.988,8.961 -0.918,13.508"
         style="fill:#ffffff;fill-opacity:1;fill-rule:nonzero;stroke:none"
         id="path144" /><path
         d="m 695.969,732.68 c 2.902,6.91 5.25,9.031 10.89,13.832 3.071,2.718 5.719,6.09 9.141,8.297 14.941,9.691 38.449,9.632 56.98,5.769 3.571,-1.027 7.09,-2.008 10.661,-3.027 11.75,-2.262 22.41,-3.563 32.41,-9.492 6.578,-3.84 11.961,-9.207 17.988,-14.11 1.531,-1.07 3.141,-2.039 4.699,-2.98 2.762,-2.078 5.672,-6.61 9.532,-6.508 5.511,0 8.929,7.051 13.011,9.969 4.528,3.351 9.059,6.871 14.11,9.308 13.8,6.692 27.519,13.59 42.75,17.383 5.488,1.25 10.949,2.539 16.461,3.789 3.128,0.559 6.519,0.238 9.347,1.352 4.68,-0.082 9.301,-0.141 13.981,-0.262 7.742,-1.219 15.859,-5.039 21.898,-9.59 2.692,-3.051 5.32,-5.961 8.051,-8.988 4.269,-4.621 8.93,-9.512 9.711,-15.934 -0.238,0 -0.399,0 -0.66,0 0,-1.078 -4.61,-0.558 -5.809,-0.558 -12.293,0.09 -24.551,0.101 -36.859,0.16 -4.492,0.058 -10.532,0.879 -14.071,-1.02 -4.043,0 -9.75,2.5 -13.429,0.641 -1.34,-0.199 -2.711,-0.41 -4.102,-0.512 -4.64,0 -10.301,0.711 -14.09,-1.148 -1.968,0 -4.242,-0.371 -5.8,-1.153 -3.969,0 -12.27,1 -15.239,-0.5 -1.761,-0.179 -3.5,-0.328 -5.293,-0.488 -1.707,-0.238 -3.5,-0.422 -5.226,-0.558 -2.782,0 -6.5,-0.411 -8.211,-2.301 -1.012,0 -0.211,-3.18 -0.199,-4.18 0.269,-10.359 -7.372,-19.769 -18.114,-19.641 -8.648,0.02 -15.437,6.231 -17.136,14.11 -0.543,2.68 0.199,6.531 -1.543,8.711 -0.758,0.898 -2.168,1.449 -3.411,1.199 -4.097,0.211 -8.168,0.441 -12.257,0.66 -0.981,-0.219 -1.993,-0.41 -2.95,-0.551 -9.589,0 -18.171,1.219 -28.089,1.25 -2.512,0.051 -6.153,0.52 -8.192,-0.507 -7.019,0.039 -13.75,0.668 -21.058,0.668 -3.454,0.031 -7.813,0.359 -10.493,-1.079 -10.289,0.071 -20.82,0.887 -31.089,0.778 -3.629,0 -8.661,0.883 -11.7,-0.559 -3.109,0.039 -6.218,0.039 -8.73,1.219 0,2.48 1.308,4.543 2.129,6.551"
         style="fill:#ffffff;fill-opacity:1;fill-rule:nonzero;stroke:none"
         id="path146" /><path
         d="m 1004.23,888.219 c -0.32,0 -0.71,0 -1.1,0 -1.88,4.672 -1.17,9.16 -1.13,14.672 0.02,7 -1.52,14.07 1.91,19.91 1.82,-0.403 3.23,-0.91 4.03,-2.641 1.76,-4 1.49,-31.941 -3.71,-31.941 z m -8.91,72.062 c 0,-0.191 0,-0.371 0,-0.609 -4.558,0.949 -5.34,4.488 -2.859,8.226 2.437,-1.148 5.168,-7.617 2.859,-7.617 z m -1.468,-85.519 c -0.262,-0.543 -3.731,-5.453 -3.704,-2.203 -0.82,1.742 -0.589,4.39 -0.589,6.429 -0.149,5.352 -0.071,11.442 -0.231,16.953 0,7.411 -0.058,14.84 -0.109,22.2 0.051,6.007 -0.481,12.289 1.883,17.039 1.738,-0.899 3.089,-2.379 3.628,-4.258 1.719,-6.461 0.36,-13.871 0.321,-20.961 -0.031,-9.672 2.429,-26.711 -1.199,-35.199 z m 20.728,90.136 c -0.03,5.532 -1.05,11.102 -1.5,16.372 -0.13,2.91 -0.31,5.859 -0.42,8.8 -0.18,1.129 0.29,6.41 -0.75,6.45 0,0.152 0,0.308 0,0.55 -0.58,0 -1.16,0 -1.75,0 -1.21,-11.5 -0.57,-24.082 -0.84,-36.269 -0.12,-4.75 -2.18,-8.211 -2.58,-12.301 0.04,-2.34 0.09,-4.68 0.15,-6.969 -0.23,-2.16 -0.37,-4.281 -0.56,-6.472 -2.83,-0.387 -4.87,0.293 -5.49,3.089 -0.891,3.954 1.03,7.231 0.92,10.973 -0.3,2.527 -0.51,5.098 -0.77,7.68 -0.18,13.859 1.09,28.5 0.97,42.058 -0.28,2.371 -0.5,4.701 -0.75,6.991 -0.33,1.19 -0.62,2.38 -0.9,3.6 -0.619,0 -1.181,0 -1.841,0 0,-0.2 0,-0.42 0,-0.61 -0.18,0 -0.36,0 -0.59,0 -0.289,-9.942 -1.43,-18.828 -1.93,-28.66 -0.39,-1.711 -0.777,-3.508 -1.121,-5.25 -0.609,0 -1.168,0 -1.777,0 -3.071,7.718 -2.121,17.859 -2.231,26.93 -0.011,4.93 0.5,9.92 -1.039,14.07 -1.75,-3.18 -1.64,-6.46 -1.98,-10.53 -0.352,-4.67 -0.68,-10.279 -0.449,-15.189 0.308,-5.25 1.308,-11.02 0.859,-16.422 -2.91,-33.527 -1.34,-66.48 -1.563,-100.617 -0.16,-6.844 -0.347,-13.641 -0.449,-20.461 -0.461,-5.789 -1.429,-12.121 -1.469,-18.211 -0.031,-8.41 0.532,-17.398 0.36,-26.281 -0.141,-8.34 -1.09,-17.68 -0.578,-26.34 0.047,-1.16 0.258,-4.141 1.609,-4.141 0,-0.148 0,-0.367 0,-0.547 0.18,0 0.418,0 0.57,0 0,0.18 0,0.399 0,0.547 0.18,0 0.43,0 0.579,0 1.609,4.981 1.101,10.75 1.32,16.371 0.332,9.2 1.449,18.571 1.191,28.129 -0.101,5.992 -1.383,13.422 0.668,19.172 0.36,0.899 1.051,1.281 2.172,0.899 2.277,-0.539 2.777,-4.071 3.109,-6.079 1.122,-7.16 -0.171,-14.16 -0.582,-21.66 -0.027,-5.851 -0.097,-11.742 -0.128,-17.558 -0.04,-6.422 -0.461,-13.231 0.218,-19.34 0.364,-3.371 -0.34,-6.633 0.582,-9.731 0.629,-1.839 0.989,-6.089 3.649,-6.089 0.621,9.679 1.001,20.578 1.011,30.476 -0.17,4.684 -0.42,9.352 -0.699,14.051 0.459,4.652 0.899,9.332 1.379,14.012 0.45,3.089 0.92,6.238 1.4,9.429 0.03,4.309 -1.31,8.45 -1.83,12.258 -0.859,6.332 -0.73,13.102 -0.67,19.871 0.01,3.621 0.01,7.25 0.97,10.43 0.33,1.043 2.04,2.019 2.04,3.031 0.17,0 0.4,0 0.56,0 2.1,-1.82 3.33,-3.699 3.74,-6.5 1.06,-7.148 0.57,-16.07 0.07,-23.34 -0.22,-2.57 -1.01,-4.761 -1.01,-7.629 0.09,-6.41 1.72,-13.261 1.92,-19.91 -0.2,-2.691 -0.29,-5.453 -0.41,-8.211 -0.04,-11.851 -0.11,-22.48 -0.19,-34.519 -0.04,-8.563 0.75,-17.75 1.61,-25.813 -0.19,-1.566 -0.41,-3.058 -0.63,-4.629 0.81,0 1.61,0 2.38,0 2.31,5.02 1.64,11.313 1.84,17.563 0.24,6.598 1.25,14.18 0.47,21.019 -0.6,4.489 -1.3,8.969 -1.94,13.528 0.07,4.711 1.57,9.051 1.71,14 0.19,7.359 -1.07,13.91 -1.07,21.109 0.49,7.543 0.9,15.184 1.36,22.832 0,5.781 0.05,11.641 0,17.469 -0.29,2.351 -0.62,4.68 -0.91,7.082 -0.09,3.668 1.01,6.687 1.09,10.488 -0.13,6.102 -0.3,12.102 -0.47,18.18 0,9.262 0.65,18.492 0.7,28.082 0.1,9.91 0.81,19.18 0.69,28.687"
         style="fill:#ffffff;fill-opacity:1;fill-rule:nonzero;stroke:none"
         id="path148" /><path
         d="m 951.988,975.898 c -2.218,-1.558 -5.539,-2.257 -8.09,-2.957 -6.628,-1.972 -13.226,-4.043 -19.847,-6.05 -9.071,-2.871 -18.391,-6.27 -26.903,-10.461 -5.937,-3.469 -11.886,-6.95 -17.937,-10.45 -0.973,-0.46 -9.191,-4.789 -9.172,-2.511 -0.238,0 -0.41,0 -0.648,0 0.781,6.16 7.89,10.34 12.757,13.172 2.313,1.679 4.641,3.281 6.961,5.019 5.942,3.809 12.379,7.481 18.629,10.391 6.684,3.168 13.774,4.808 20.782,7.16 2.429,1.109 4.781,2.187 7.128,3.211 3.18,1.098 6.321,2.238 9.5,3.297 2.43,0 5.25,0.211 7.422,-0.528 4.559,-1.582 2.328,-7.179 -0.582,-9.293 z M 951.09,832.801 c -4.781,-2.891 -11.09,-2.852 -16.699,-4.09 -5.11,-1.063 -10.121,-2.621 -15.313,-3.832 -17.406,-3.957 -31.816,-10.957 -46.738,-19.848 -1.828,-1.082 -6.68,-5.781 -8.559,-2.312 -1.383,2.312 2.258,4.82 3.75,6.101 5.778,5.071 11.77,8.43 18.039,12.43 6.981,4.328 13.95,8.23 21.649,11.199 2.453,1.352 4.902,2.653 7.383,4.012 9.589,3.769 19.449,6.098 29.199,9.449 2.738,0 5.597,-0.09 7.847,-1.199 4.704,-2.461 3.461,-9.492 -0.558,-11.91 z m -81.738,47.73 c 14.078,13.071 32.386,19.508 49.546,26.508 5.454,2.211 11.801,6.172 18.262,6.121 2.16,1.68 7.031,4.11 9.942,4.102 0,0.207 0,0.347 0,0.558 3.41,-0.55 5.937,-2.011 6.039,-5.851 0.109,-3.34 -1.563,-6.008 -4.082,-7.758 -5.161,-3.352 -11.278,-3.922 -17.188,-5.981 -6.601,-2.16 -13.492,-4.691 -20.16,-6.718 -4.582,-1.391 -9.141,-2.403 -13.481,-4.114 -7.878,-3.207 -15.769,-7.269 -23.039,-11.687 -2.64,-1.582 -5.32,-4 -8.582,-4.102 -0.8,-0.058 -1.66,0.02 -2.23,0.539 -2.801,2.84 3.32,6.883 4.973,8.383 z m 108.546,21.949 c -0.257,3.481 -0.597,6.989 -0.929,10.508 -0.149,14.672 0.672,29.731 0.722,43.852 -0.132,4.5 -0.281,9 -0.421,13.519 -0.161,11.129 0.082,22.02 -0.551,32.761 -0.649,3.37 -1.207,6.69 -1.84,10.03 -0.609,3.82 0.199,8.23 0.402,12.2 0,1.32 0.391,5.25 -1.25,5.25 -2.82,1.41 -6.043,0.75 -9.312,0.92 -3.828,0.2 -7.59,0.99 -11.731,0.99 -4.359,-1.52 -9.828,-1.04 -14.527,-1.93 -21.652,-4.08 -41.93,-7.24 -60.66,-17.15 -4.59,-2.47 -9.563,-5.12 -13.082,-9.32 -2.66,-3.16 -2.739,-7.2 -3.36,-11.45 -1.531,-9.969 -1.507,-20.609 -1.839,-31.621 -0.399,-5.418 -0.79,-10.879 -1.192,-16.391 -0.09,-7.949 -0.09,-15.976 -0.207,-24 -0.351,-3.097 -0.691,-6.199 -1.062,-9.339 -0.719,-7.399 -0.5,-15.579 -0.778,-22.829 -0.422,-11.199 0.231,-22.601 0.469,-33.3 0.27,-10.321 -0.41,-21.481 -0.309,-32.219 0.289,-2.922 0.539,-5.82 0.758,-8.77 -0.219,-1.761 -0.449,-3.5 -0.64,-5.261 -0.098,-4.918 0.921,-9.84 0.871,-15.211 -0.071,-14.418 -0.45,-32.91 5.3,-44.399 0.282,-0.55 2.098,-3.16 2.098,-1.898 6.453,2.527 12.242,7.558 18.281,10.887 5.379,2.921 11.25,4.64 16.61,7.5 6.531,3.519 9.953,5.98 18.5,5.82 2.41,1.621 9.59,2.949 12.883,2.93 1.386,0.191 2.75,0.32 4.07,0.55 1.199,0.192 2.367,0.313 3.5,0.563 6.219,3.066 20.687,0.219 26.969,-1.293 3.078,-0.789 6.211,-1.578 9.339,-2.367 1.52,9 0,19.277 -0.21,28.09 0.32,4.988 0.679,10.136 0.992,15.136 0.09,6.383 -0.41,12.813 -0.293,18.821 0.293,3.089 0.66,6.242 0.972,9.3 0.43,7.36 -0.062,14.442 0.379,21.7 0.2,4.14 0.84,8.632 0.95,12.851 0.128,8.11 0.429,16.219 0.128,24.57"
         style="fill:#ffffff;fill-opacity:1;fill-rule:nonzero;stroke:none"
         id="path150" /><path
         d="m 838.5,940.09 c -0.68,-1.25 -2.809,-1.328 -4.059,-1.11 -3.492,0.7 -6.121,3.918 -9.05,5.668 -3.352,1.961 -6.789,3.821 -10.231,5.774 -18.16,9.18 -38.68,14.527 -58.519,20.008 -5.719,1.57 -13.141,1.242 -18.051,4.32 -4.051,2.52 -4.168,7.941 -0.602,10.969 8.524,-0.047 15.403,-2.77 22.891,-5 2.281,-0.418 4.562,-0.899 6.762,-1.391 4.968,-1.316 9.66,-3.328 14.339,-5.238 4.129,-1.449 8.282,-2.899 12.43,-4.309 2.031,-1.152 4.012,-2.23 5.981,-3.269 5.699,-2.641 11.418,-5.371 17.089,-8.071 3.54,-1.64 23.129,-13.863 21.02,-18.351 z m -2.27,-73.102 c -0.46,-0.168 -0.832,-0.34 -1.25,-0.437 -0.242,-0.031 -0.41,-0.102 -0.628,-0.153 -4.082,-0.597 -20.582,12.93 -25.59,15.301 -5.871,2.781 -11.91,4.992 -18,7.36 -8.141,3.132 -16.071,6.75 -25.25,7.929 -3.481,0.461 -6.942,0.942 -10.512,1.383 -4.738,0.238 -12.199,-0.832 -15.75,1.988 -4.371,3.532 -1.531,12.801 4.23,12.801 0,0.18 0,0.352 0,0.52 25.821,-1.77 48.168,-13.621 69.168,-25.461 5.641,-3.18 20.293,-11.989 23.274,-17.91 0.367,-0.649 1.449,-3.34 0.308,-3.321 z m -14.019,-64.09 c -10.012,4.711 -20.699,8.532 -31.449,11.883 -3.742,1.16 -7.641,1.649 -11.582,2.43 -5.66,1.199 -11.641,2.828 -17.59,3.777 -6.61,1 -13.41,1.301 -19.84,2.684 -0.711,0.297 -1.449,0.609 -2.148,0.867 -5.301,2.859 -5.34,13.172 2.269,13.109 0,0.18 0,0.383 0,0.59 4.738,0 8.25,-1.258 12.328,-2.078 4.223,-0.941 8.59,-1.34 12.723,-2.359 3.519,-1.313 7.047,-2.621 10.578,-3.852 10.43,-3.379 19.949,-6.871 29.738,-11.461 2.313,-0.847 4.59,-1.707 6.942,-2.547 5.558,-2.421 13.66,-8.351 17.679,-13.191 1.493,-1.711 3.95,-2.809 3.95,-5.398 -4.86,-0.633 -9.61,3.687 -13.598,5.546 z m 21.23,177.614 c -0.812,8.597 0.368,17.707 -4.531,24.258 -9.14,12.4 -21.648,16.87 -35.012,21.85 -3.57,1.23 -7.117,2.49 -10.679,3.74 -4.028,0.77 -8.059,1.53 -12.168,2.31 -6.211,1.49 -13.34,2.79 -19.992,3.13 -9.368,0.1 -18.688,0.17 -28.047,0.32 -2.774,-1.28 -7.364,-0.88 -9.211,-3.61 -1.77,-2.75 -0.832,-13.37 -0.832,-17.45 -0.11,-15.869 -0.797,-31.662 -0.91,-47.951 -0.028,-9.609 -0.11,-19.16 -0.219,-28.687 -0.512,-7.992 -1.059,-16.024 -1.61,-24.012 -0.191,-5.73 2.129,-10.871 1.942,-16.961 -0.25,-11.758 -0.461,-24.629 -0.711,-36.879 -0.441,-5.058 -0.781,-10.148 -1.231,-15.211 -0.191,-10.379 0.59,-20.121 0.372,-30.418 -0.372,-5.082 -0.782,-10.132 -1.172,-15.191 -0.059,-4.871 1.441,-8.98 1.441,-13.461 0,-5.277 -1.019,-10.289 -1.051,-15.809 2.129,0 4.282,-0.031 6.391,-0.031 1.66,0.781 3.891,1.16 5.879,1.16 1.629,0.782 3.93,1.129 5.851,1.129 1.379,0.172 2.758,0.364 4.118,0.512 5.57,2.5 20.73,-0.629 26.402,-1.621 7.18,-1.18 13.898,-0.918 20.93,-2.379 8.25,-1.762 20.781,-6.52 27.918,-10.738 2.531,-1.481 16.929,-12.641 18.222,-12.641 0,0.141 0,0.34 0,0.559 3.739,6.172 3.36,12.191 4.418,19.832 1.231,8.617 1.352,17.449 1.762,26.949 0.418,13.418 1.211,27.25 1.309,40.949 -0.11,5.852 -0.2,11.75 -0.391,17.531 0.633,16.887 0.473,33.25 0.812,49.789 0.547,25.79 2.27,53.282 0,79.032"
         style="fill:#ffffff;fill-opacity:1;fill-rule:nonzero;stroke:none"
         id="path152" /><path
         d="m 806.922,1495.1 c -8.891,-0.99 -17.774,-2.12 -26.652,-3.16 -7.661,-1.24 -15.239,-2.59 -23.598,-2.89 -18.172,-3.46 -36.32,-6.96 -54.512,-10.46 -25.558,-5.19 -49.801,-15.94 -73.211,-25.65 -43.89,-18.13 -85.277,-39.09 -125.129,-65.41 -9.429,-6.21 -75.289,-52.38 -75.289,-59.54 10.731,-0.85 21.481,-1.72 32.207,-2.54 25.852,-1.53 52.883,-0.55 78.602,-0.55 15.84,-0.79 31.73,-1.62 47.64,-2.4 6.219,2.95 16.239,1.42 23.821,1.42 21.719,0 42.39,-1.39 63.058,-1.35 10.7,4.47 27.93,0.57 39.289,0.18 35.032,-0.03 70.102,-0.03 105.141,-0.03 39.27,-0.9 78.539,-1.79 117.781,-2.66 72.45,0.96 144.89,1.98 217.34,2.93 5.38,1.94 13.43,0.05 19.65,0.05 12.57,-0.32 25.22,-0.71 37.8,-1.03 6.54,0.26 13.07,0.6 19.63,0.98 12.34,-0.38 25.97,-1.61 39.25,-1.2 2.85,0.12 11.09,-0.46 14.09,-0.46 8.85,0 -7.15,12.7 -9.92,15.78 -9.1,10.33 -19.25,17.38 -30.1,24.63 -6.43,5.1 -12.9,10.21 -19.4,15.28 -13.18,8.9 -26.46,17.72 -39.69,26.56 -82.84,49.99 -162.76,79.5 -265.7,89.71 -14.911,0.28 -29.809,0.59 -44.77,0.89 -21.77,0.31 -45.199,0.96 -67.328,0.92"
         style="fill:#ee293d;fill-opacity:1;fill-rule:nonzero;stroke:none"
         id="path154" /><path
         d="m 393.66,1295.63 c -9.039,-9.13 -22.351,-22.55 -31.371,-31.72 -18.687,-25.16 -37.379,-50.29 -56.008,-75.45 -39.281,-66.2 -63.261,-135.15 -80.242,-212.409 -2.738,-12.352 -2.711,-24.602 -3.867,-37.672 -6.031,-63.649 -7.801,-135.199 2.34,-198.008 2.789,-10.383 5.59,-20.762 8.379,-31.07 3.097,-17.129 5.648,-32.942 11.019,-48.871 5.379,-13.211 10.801,-26.399 16.141,-39.508 6.469,-19.402 16.269,-36.891 25.519,-54.731 21.809,-42.543 47.192,-82.992 77.969,-121.441 4.461,-5.551 15.723,-21.16 23.691,-21.16 0,0.461 0,0.91 0,1.41 6.211,11.73 1.899,47.328 1.489,61.699 -0.117,24.289 -0.18,48.531 -0.219,72.879 -0.039,21.703 -0.891,44.652 0.219,67.281 2.172,48.321 0.269,98.391 1,147.282 0.582,41.308 2.73,83.871 2.703,126.148 -0.031,39.742 -2.402,83.34 1.019,121.851 -0.312,4.25 -0.64,8.52 -0.992,12.81 -0.027,12.13 -0.058,24.28 -0.109,36.41 0.672,16.78 1.351,33.54 2.019,50.36 -1.078,36.09 -0.847,72.79 -2.019,109.53 -0.891,25.76 2.332,50.56 1.32,64.38"
         style="fill:#ee293d;fill-opacity:1;fill-rule:nonzero;stroke:none"
         id="path156" /><path
         d="m 1318.38,1291.69 c -1.97,-24.67 2.14,-63.06 1.79,-89.05 -0.89,-56.04 -1.13,-111.73 -1.08,-169.76 0.1,-94.642 0.14,-180.552 0.22,-271.989 0,-51.153 -2.61,-102.172 -0.03,-154.172 -0.19,-21.071 -0.34,-42.098 -0.56,-63.117 0.07,-38.672 4.49,-79.102 -3.64,-116.282 -0.52,-2.211 -5.52,-18.871 -1.55,-18.871 13.24,0 74.02,87.821 82.51,101.789 6.16,11.192 12.29,22.364 18.37,33.551 3.37,7.602 6.76,15.191 10.13,22.891 11.81,20.871 25.33,46.398 33.25,69.371 16.57,48.699 26.58,98.719 33.58,152.371 2.27,17.598 1.61,34.539 1.86,53.18 0.49,9.839 0.89,19.617 1.31,29.418 -0.85,52.519 -7.03,108.019 -20.54,154.7 -13.41,46.18 -34.3,91.03 -57.27,132.56 -8.06,14.55 -17.99,27.88 -26.96,41.99 -12.04,18.9 -63.49,97.34 -71.39,91.42"
         style="fill:#ee293d;fill-opacity:1;fill-rule:nonzero;stroke:none"
         id="path158" /><path
         d="M 1234.07,341.672 C 1198.12,314.609 1123.4,311.781 1075.88,306 c -12.18,-1.602 -24.4,-3.148 -36.6,-4.641 -59.3,-2.839 -137.358,-8.359 -158.729,-69.3 -2.192,-6.528 -1.973,-7.899 -4.223,-14.481 -0.969,-5.816 26.461,-0.297 39.043,-0.297 3.649,1.84 9.57,1.418 14.07,1.418 2.809,0.481 5.618,0.942 8.411,1.371 7.007,3.852 17.82,4.27 26.648,4.309 5.852,2.93 13.82,2.762 21.07,2.762 7.649,4.25 26.48,7.089 36.39,7.089 16.76,5.711 33.48,11.461 50.22,17.29 47.55,19.289 98.01,38.679 138.59,71.128 6.01,4.852 13.61,6.422 23.3,19.024"
         style="fill:#ee293d;fill-opacity:1;fill-rule:nonzero;stroke:none"
         id="path160" /><path
         d="m 495.301,329.738 c 10.527,-12.699 25.461,-15.609 38.59,-24.578 7.507,-5.48 18.429,-11.148 25.847,-16.648 28.723,-13.75 50.422,-25.071 79.762,-34.782 32.289,-10.718 63.82,-20.949 98.57,-27.269 11.719,-2.082 91.758,-16.602 94.719,-9.18 4.801,12.129 -21.289,41.821 -30.328,49.481 -8.441,7.226 -18.711,11.777 -28.02,16.847 -8.972,4.942 -19.461,7.813 -29.363,10.442 -13.039,3.609 -25.707,7.789 -39.558,10.109 -13.321,2.27 -26.489,2.371 -40.559,3.66 -12.191,1.981 -24.352,3.961 -36.609,5.969 -15.801,2.133 -31.641,1.93 -47.43,3.902 -29.043,3.559 -56.07,10.27 -85.621,12.047"
         style="fill:#ee293d;fill-opacity:1;fill-rule:nonzero;stroke:none"
         id="path162" /><path
         d="m 2411.11,333.672 v 512.226 h 143.08 l -1.9,-68.679 c 31.48,51.492 79.15,78.211 146.88,78.211 105.88,0 174.55,-66.77 174.55,-184.09 V 333.672 h -150.7 V 611.25 c 0,71.531 -15.25,103.969 -73.44,103.969 -59.14,0 -90.62,-35.297 -90.62,-103.969 V 333.672 h -147.85"
         style="fill:#0c2f59;fill-opacity:1;fill-rule:nonzero;stroke:none"
         id="path164" /><path
         d="m 2933.81,731.441 v 114.457 h 55.34 c 0,6.672 -0.98,13.352 -0.98,19.071 0,109.691 59.15,159.291 185.06,159.291 7.63,0 15.27,-0.95 23.85,-0.95 V 920.301 c -0.96,0 -2.87,0 -3.82,0 -45.77,0 -56.27,-15.281 -56.27,-62.02 0,-3.812 0,-7.609 0,-12.383 h 60.09 V 731.441 h -60.09 V 333.672 h -147.84 v 397.769 h -55.34"
         style="fill:#0c2f59;fill-opacity:1;fill-rule:nonzero;stroke:none"
         id="path166" /><path
         d="m 3495.54,463.41 c 66.76,0 121.13,56.281 121.13,125.899 0,70.589 -54.37,126.851 -121.13,126.851 -66.77,0 -121.16,-56.262 -121.16,-126.851 0,-69.618 55.33,-125.899 121.16,-125.899 z m -191.73,315.711 c 51.51,51.508 119.23,80.129 188.87,80.129 74.4,0 138.29,-25.762 189.82,-74.391 54.37,-51.531 83.92,-122.109 83.92,-191.73 0,-77.27 -25.74,-141.168 -77.25,-192.68 -52.46,-52.449 -117.32,-80.121 -194.59,-80.121 -78.21,0 -141.18,26.711 -193.63,82.024 -49.61,51.519 -75.35,117.339 -75.35,188.878 0,71.52 27.66,137.34 78.21,187.891"
         style="fill:#0c2f59;fill-opacity:1;fill-rule:nonzero;stroke:none"
         id="path168" /><path
         d="m 3964.72,845.898 v -69.636 c 24.8,51.519 67.73,77.269 128.76,77.269 V 714.262 c -0.94,0 -2.86,0 -3.8,0 -95.39,0 -115.42,-32.422 -115.42,-126.864 V 333.672 h -152.61 v 512.226 h 143.07"
         style="fill:#0c2f59;fill-opacity:1;fill-rule:nonzero;stroke:none"
         id="path170" /><path
         d="m 4157.58,333.672 v 512.226 h 136.41 v -68.679 c 31.47,52.461 77.26,78.211 139.25,78.211 62.01,0 108.74,-26.719 142.13,-82.032 53.42,56.282 94.45,82.032 158.35,82.032 115.42,0 180.27,-64.86 180.27,-184.09 V 333.672 H 4767.08 V 611.25 c 0,71.531 -15.25,103.969 -71.52,103.969 -57.24,0 -87.75,-35.297 -87.75,-103.969 V 333.672 H 4459.96 V 611.25 c 0,71.531 -15.26,103.969 -71.54,103.969 -57.23,0 -87.74,-35.297 -87.74,-103.969 V 333.672 h -143.1"
         style="fill:#0c2f59;fill-opacity:1;fill-rule:nonzero;stroke:none"
         id="path172" /><path
         d="m 5248.78,467.219 c 64.86,0 119.22,53.422 119.22,124.011 0,73.43 -54.36,128.75 -124.92,128.75 -71.55,0 -126.9,-58.171 -126.9,-126.851 0,-71.539 55.35,-125.91 132.6,-125.91 z m 118.29,-76.297 c -44.84,-43.883 -90.63,-60.102 -151.66,-60.102 -62.04,0 -115.43,20.032 -160.26,60.102 -59.15,52.449 -89.67,121.137 -89.67,201.238 0,73.461 28.62,139.281 82.02,190.781 47.71,46.739 105.87,70.59 170.78,70.59 61.96,0 109.67,-21 144.01,-64.871 v 57.238 h 150.7 V 333.672 h -145.92 v 57.25"
         style="fill:#0c2f59;fill-opacity:1;fill-rule:nonzero;stroke:none"
         id="path174" /><path
         d="m 5586.95,733.328 v 112.57 h 64.85 v 165.962 h 152.63 V 845.898 h 67.7 v -112.57 h -67.7 V 333.672 H 5651.8 v 399.656 h -64.85"
         style="fill:#0c2f59;fill-opacity:1;fill-rule:nonzero;stroke:none"
         id="path176" /><path
         d="m 6686.27,516.82 c -38.15,-123.031 -137.35,-196.492 -262.31,-196.492 -78.2,0 -141.17,26.711 -193.61,82.024 -49.61,52.476 -75.37,119.238 -75.37,190.777 0,71.531 27.67,136.391 78.22,187.91 52.47,53.402 115.43,80.121 188.86,80.121 128.77,0 223.21,-70.59 264.21,-200.308 h -159.28 c -20.97,35.277 -56.29,54.367 -105.88,54.367 -67.71,0 -117.34,-51.508 -117.34,-122.09 0,-78.219 49.63,-126.859 122.11,-126.859 41.01,0 74.38,17.16 99.19,50.55 h 161.2"
         style="fill:#0c2f59;fill-opacity:1;fill-rule:nonzero;stroke:none"
         id="path178" /><path
         d="m 6873.23,486.289 c 0,-1.898 0,-3.809 0,-4.758 0,-28.621 22.88,-48.66 55.32,-48.66 32.43,0 51.48,16.219 51.48,44.84 0,41.98 -40.99,40.07 -104.9,60.09 -88.7,27.66 -131.64,75.359 -131.64,152.609 0,100.16 73.45,170.75 195.55,170.75 105.89,0 173.59,-60.101 179.31,-157.379 h -136.38 c -5.72,33.367 -18.15,47.68 -44.86,47.68 -29.55,0 -46.71,-17.172 -46.71,-41.973 0,-35.289 31.47,-43.867 83.92,-58.179 104.93,-28.61 157.39,-68.68 157.39,-153.559 0,-103.02 -81.09,-177.422 -205.06,-177.422 -114.48,0 -185.06,61.992 -195.55,165.961 h 142.13"
         style="fill:#0c2f59;fill-opacity:1;fill-rule:nonzero;stroke:none"
         id="path180" /><path
         d="M 2172.86,782.039 V 333.672 h 149.76 v 512.226 c 0,0 -72.11,-64.207 -149.19,-64.207 l -0.57,0.348"
         style="fill:#0c2f59;fill-opacity:1;fill-rule:nonzero;stroke:none"
         id="path182" /><path
         d="m 2328.15,939.422 c 0,-44.402 -36.01,-80.422 -80.43,-80.422 -44.39,0 -80.4,36.02 -80.4,80.422 0,44.406 36.01,80.408 80.4,80.408 44.42,0 80.43,-36.002 80.43,-80.408"
         style="fill:#ee293d;fill-opacity:1;fill-rule:nonzero;stroke:none"
         id="path184" /><path
         d="M 5941.42,782.039 V 333.672 h 149.77 v 512.226 c 0,0 -72.11,-64.207 -149.19,-64.207 l -0.58,0.348"
         style="fill:#0c2f59;fill-opacity:1;fill-rule:nonzero;stroke:none"
         id="path186" /><path
         d="m 6096.71,939.422 c 0,-44.402 -36.01,-80.422 -80.43,-80.422 -44.38,0 -80.39,36.02 -80.39,80.422 0,44.406 36.01,80.408 80.39,80.408 44.42,0 80.43,-36.002 80.43,-80.408"
         style="fill:#0c2f59;fill-opacity:1;fill-rule:nonzero;stroke:none"
         id="path188" /><path
         d="m 2267.3,1196.7 c 0,-25.71 4.84,-32.8 23.12,-32.8 v -6.35 h -75.7 v 6.35 c 15.29,0 24.24,4.48 24.24,33.92 v 162.92 h -30.94 c -28.71,0 -41.77,-8.2 -43.63,-30.58 h -6.32 v 48.86 h 6.32 c 2.98,-2.63 6.34,-4.49 11.57,-5.98 4.85,-1.1 11.56,-1.86 20.5,-1.86 h 111.85 c 18.61,0 27.21,2.24 33.92,7.84 h 6.7 v -48.86 h -4.09 c -4.1,17.91 -11.19,30.58 -45.12,30.58 H 2267.3 V 1196.7"
         style="fill:#0c2f59;fill-opacity:1;fill-rule:nonzero;stroke:none"
         id="path190" /><path
         d="m 2428.32,1259.71 v -61.89 c 0,-25.74 6.36,-33.92 24.61,-33.92 v -6.35 h -77.17 v 6.35 c 16.41,0 24.23,5.58 24.23,33.92 v 133.1 c 0,25.35 -5.22,33.93 -24.23,33.93 v 6.33 h 77.17 v -6.33 c -16.77,0 -24.61,-6.72 -24.61,-33.93 v -60.79 h 116.32 v 60.79 c 0,26.09 -5.59,33.93 -23.85,33.93 v 6.33 h 76.43 v -6.33 c -18.26,0 -24.24,-8.58 -24.24,-33.93 v -133.1 c 0,-25.36 5.98,-33.92 24.24,-33.92 v -6.35 h -76.43 v 6.35 c 16.77,0 23.85,5.58 23.85,33.92 v 61.89 h -116.32"
         style="fill:#0c2f59;fill-opacity:1;fill-rule:nonzero;stroke:none"
         id="path192" /><path
         d="m 2769.06,1238.45 h -6.34 c -4.48,18.27 -7.85,20.51 -29.82,20.51 h -52.94 v -76.42 c 0,-10.46 3.72,-14.54 15.66,-14.54 h 37.28 c 31.32,0 39.12,1.48 51.81,29.46 h 6.33 l -9.69,-39.91 h -153.97 v 6.35 c 16.78,0 24.25,5.22 24.25,33.56 v 133.46 c 0,26.49 -5.97,33.93 -24.25,33.93 v 6.33 h 153.97 v -35.79 h -4.08 c -4.86,23.49 -12.3,25.35 -35.81,25.35 h -61.5 v -91.35 h 59.63 c 14.56,0 20.14,2.63 23.13,20.88 h 6.34 v -51.82"
         style="fill:#0c2f59;fill-opacity:1;fill-rule:nonzero;stroke:none"
         id="path194" /><path
         d="m 3078.09,1187.38 c -20.51,-23.86 -42.86,-35.03 -71.2,-35.03 -51.85,0 -72.71,36.52 -72.71,73.42 v 105.15 c 0,28.34 -7.46,33.93 -24.22,33.93 v 6.33 h 77.16 v -6.33 c -17.52,0 -24.6,-6.35 -24.6,-33.57 v -108.11 c 0,-32.81 18.26,-56.3 54.42,-56.3 24.61,0 46.24,12.32 61.15,35.43 v 128.62 c 0,24.61 -5.59,33.18 -22.75,33.93 v 6.33 h 75.31 v -6.33 c -17.89,0 -24.22,-8.21 -24.22,-33.93 v -133.1 c 0,-27.95 7.82,-33.92 24.22,-33.92 v -6.35 h -52.56 v 29.83"
         style="fill:#0c2f59;fill-opacity:1;fill-rule:nonzero;stroke:none"
         id="path196" /><path
         d="m 3355.44,1157.55 h -6.33 l -150.63,185.67 h -0.74 v -149.87 c 0,-21.62 8.56,-29.45 27.95,-29.45 v -6.35 h -64.86 v 6.35 c 17.9,0 26.47,5.58 26.47,36.52 v 124.9 c 0,23.87 -6.34,37.29 -31.68,39.53 v 6.33 h 54.8 l 133.46,-166.28 h 0.75 v 124.89 c 0,27.98 -7.46,35.06 -26.1,35.06 v 6.33 h 64.5 v -6.33 c -20.88,0 -27.59,-8.58 -27.59,-33.57 v -173.73"
         style="fill:#0c2f59;fill-opacity:1;fill-rule:nonzero;stroke:none"
         id="path198" /><path
         d="m 3463.52,1197.82 c 0,-26.09 6.34,-33.92 24.24,-33.92 v -6.35 h -76.8 v 6.35 c 17.51,0 24.24,6.7 24.24,33.92 v 133.1 c 0,26.85 -5.97,33.93 -24.24,33.93 v 6.33 h 76.8 v -6.33 c -17.9,0 -24.24,-8.21 -24.24,-33.93 v -133.1"
         style="fill:#0c2f59;fill-opacity:1;fill-rule:nonzero;stroke:none"
         id="path200" /><path
         d="m 3615.99,1154.57 h -5.95 l -66,173.37 c -10.07,26.1 -15.28,36.16 -35.4,36.91 v 6.33 h 77.53 v -6.33 c -15.27,0 -22.73,-8.21 -16.38,-24.98 l 52.18,-137.94 49.58,133.09 c 6.72,18.26 3.35,29.83 -16.04,29.83 v 6.33 h 62.27 v -6.71 c -16.06,0 -27.94,-12.3 -38.77,-41.38 l -63.02,-168.52"
         style="fill:#0c2f59;fill-opacity:1;fill-rule:nonzero;stroke:none"
         id="path202" /><path
         d="M 3877.33,1238.45 H 3871 c -4.47,18.27 -7.83,20.51 -29.84,20.51 h -52.95 v -76.42 c 0,-10.46 3.73,-14.54 15.67,-14.54 h 37.28 c 31.33,0 39.16,1.48 51.81,29.46 h 6.34 l -9.7,-39.91 h -153.95 v 6.35 c 16.77,0 24.22,5.22 24.22,33.56 v 133.46 c 0,26.49 -5.96,33.93 -24.22,33.93 v 6.33 h 153.95 v -35.79 h -4.09 c -4.84,23.49 -12.3,25.35 -35.81,25.35 h -61.5 v -91.35 h 59.66 c 14.54,0 20.13,2.63 23.13,20.88 h 6.33 v -51.82"
         style="fill:#0c2f59;fill-opacity:1;fill-rule:nonzero;stroke:none"
         id="path204" /><path
         d="m 3982.06,1265.3 h 26.11 c 36.16,0 50.32,24.6 50.32,49.22 0,28.33 -21.25,48.46 -54.06,48.46 h -22.37 z m 0,-67.48 c 0,-26.09 6.71,-33.92 24.24,-33.92 v -6.35 h -76.8 v 6.35 c 16.39,0 24.22,5.22 24.22,33.92 v 133.85 c 0,27.95 -7.07,33.18 -24.22,33.18 v 6.33 h 87.6 c 48.11,0 71.22,-27.59 71.22,-55.94 0,-23.48 -12.68,-43.22 -43.99,-52.56 39.87,-25.72 53.32,-96.17 88.72,-98.78 v -6.35 h -43.62 c -39.89,48.46 -51.08,98.79 -90.22,98.79 h -17.15 v -58.52"
         style="fill:#0c2f59;fill-opacity:1;fill-rule:nonzero;stroke:none"
         id="path206" /><path
         d="m 4267.23,1324.2 h -6.35 c -3.35,31.7 -25.71,44 -47.32,44 -22.39,0 -38.43,-12.3 -38.43,-32.07 0,-39.5 54.45,-49.95 85.03,-80.52 14.92,-14.93 18.62,-28.34 18.62,-42.51 0,-33.55 -27.2,-60.75 -60.75,-60.75 -22.73,0 -41.77,11.17 -48.86,11.17 -3.72,0 -6.29,-2.61 -8.19,-8.22 h -6.33 v 57.8 h 6.33 c 0.37,-39.53 32.81,-52.57 51.44,-52.57 25.75,0 42.91,14.93 42.91,38.03 0,36.93 -57.41,54.05 -81.3,77.93 -13.05,13.03 -18.26,27.96 -18.26,44.71 0,32.84 23.5,55.19 58.17,55.19 22.73,0 33.57,-8.19 41.72,-8.19 3.4,0 4.15,0.76 5.61,5.97 h 5.96 v -49.97"
         style="fill:#0c2f59;fill-opacity:1;fill-rule:nonzero;stroke:none"
         id="path208" /><path
         d="m 4356.35,1197.82 c 0,-26.09 6.32,-33.92 24.17,-33.92 v -6.35 h -76.75 v 6.35 c 17.49,0 24.23,6.7 24.23,33.92 v 133.1 c 0,26.85 -5.96,33.93 -24.23,33.93 v 6.33 h 76.75 v -6.33 c -17.85,0 -24.17,-8.21 -24.17,-33.93 v -133.1"
         style="fill:#0c2f59;fill-opacity:1;fill-rule:nonzero;stroke:none"
         id="path210" /><path
         d="m 4512.87,1196.7 c 0,-25.71 4.85,-32.8 23.09,-32.8 v -6.35 h -75.65 v 6.35 c 15.31,0 24.25,4.48 24.25,33.92 v 162.92 h -30.92 c -28.73,0 -41.79,-8.2 -43.62,-30.58 h -6.32 v 48.86 h 6.32 c 2.98,-2.63 6.32,-4.49 11.54,-5.98 4.84,-1.1 11.57,-1.86 20.5,-1.86 h 111.84 c 18.65,0 27.2,2.24 33.91,7.84 h 6.72 v -48.86 h -4.11 c -4.08,17.91 -11.14,30.58 -45.1,30.58 h -32.45 V 1196.7"
         style="fill:#0c2f59;fill-opacity:1;fill-rule:nonzero;stroke:none"
         id="path212" /><path
         d="m 4726.54,1197.82 c 0,-25.74 5.18,-33.92 23.45,-33.92 v -6.35 h -77.91 v 6.35 c 16.4,0 26.08,3.35 26.08,33.92 v 67.1 l -45.46,70.83 c -14.92,23.51 -21.26,28.35 -38.07,29.1 v 6.33 h 83.53 v -6.33 c -23.52,0 -26.08,-8.21 -17.53,-21.26 l 42.12,-64.87 33.94,53.67 c 10.46,16.8 11.2,32.46 -6.7,32.46 v 6.33 h 58.55 v -6.33 c -16.43,-1.12 -22.02,-5.59 -33.96,-24.23 l -48.04,-75.7 v -67.1"
         style="fill:#0c2f59;fill-opacity:1;fill-rule:nonzero;stroke:none"
         id="path214" /><path
         d="m 4944.19,1273.51 c -23.87,0 -45.1,-35.06 -45.1,-74.95 0,-20.87 9.67,-34.29 24.98,-34.29 24.6,0 45.46,35.05 45.46,76.04 0,18.29 -10.4,33.2 -25.34,33.2 z m -28.33,-120.05 c -22.73,0 -38.76,17.9 -38.76,43.24 0,44.37 38.01,87.6 76.79,87.6 20.14,0 37.69,-19.38 37.69,-42.12 0,-33.93 -29.89,-88.72 -75.72,-88.72"
         style="fill:#0c2f59;fill-opacity:1;fill-rule:nonzero;stroke:none"
         id="path216" /><path
         d="m 5087.35,1270.13 h -26.09 l -20.51,-108.85 c -8.21,-44 -14.53,-66.34 -35.03,-86.87 -8.98,-8.94 -28.37,-19.37 -49.59,-19.37 -17.54,0 -33.58,3.73 -43.27,10.04 l 5.6,26.11 h 6.32 c 3.72,-19.4 17.17,-28.71 32.46,-28.71 12.69,0 26.47,5.59 34.64,13.82 12.31,12.29 20.15,37.27 25.77,67.84 l 23.46,125.99 h -26.1 l 1.15,10.09 h 26.08 l 9.31,45.1 c 5.2,25.73 15.66,62.61 63,63.37 8.19,0 14.91,-1.48 25.33,-4.82 l 1.11,4.45 h 7.5 l -7.1,-33.54 h -7.46 c -0.75,7.83 -3.35,26.46 -23.48,26.46 -19.01,0 -30.2,-14.91 -36.54,-45.49 l -11.55,-55.53 h 26.11 l -1.12,-10.09"
         style="fill:#0c2f59;fill-opacity:1;fill-rule:nonzero;stroke:none"
         id="path218" /><path
         d="m 5335.6,1238.45 h -6.34 c -4.44,18.27 -7.83,20.51 -29.8,20.51 h -52.96 v -76.42 c 0,-10.46 3.73,-14.54 15.68,-14.54 h 37.28 c 31.3,0 39.15,1.48 51.8,29.46 h 6.37 l -9.69,-39.91 h -153.97 v 6.35 c 16.74,0 24.22,5.22 24.22,33.56 v 133.46 c 0,26.49 -5.96,33.93 -24.22,33.93 v 6.33 h 153.97 v -35.79 h -4.13 c -4.83,23.49 -12.33,25.35 -35.81,25.35 h -61.5 v -91.35 h 59.66 c 14.53,0 20.12,2.63 23.1,20.88 h 6.34 v -51.82"
         style="fill:#0c2f59;fill-opacity:1;fill-rule:nonzero;stroke:none"
         id="path220" /><path
         d="m 5439.22,1205.26 c 0,-33.18 7.48,-39.51 27.25,-39.51 h 21.97 c 52.98,0 84.64,36.55 84.64,94.71 0,51.07 -25.75,102.52 -93.2,102.52 h -40.66 z m -28.32,125.66 c 0,25.72 -6.34,33.93 -24.21,33.93 v 6.33 h 98.78 c 81.64,0 120.43,-54.79 120.43,-110.35 0,-53.67 -33.93,-103.28 -117.86,-103.28 h -101.35 v 6.35 c 17.11,0 24.21,7.46 24.21,33.92 v 133.1"
         style="fill:#0c2f59;fill-opacity:1;fill-rule:nonzero;stroke:none"
         id="path222" /><path
         d="m 5690.11,1197.82 c 0,-26.09 6.34,-33.92 24.23,-33.92 v -6.35 h -76.77 v 6.35 c 17.5,0 24.2,6.7 24.2,33.92 v 133.1 c 0,26.85 -5.95,33.93 -24.2,33.93 v 6.33 h 76.77 v -6.33 c -17.89,0 -24.23,-8.21 -24.23,-33.93 v -133.1"
         style="fill:#0c2f59;fill-opacity:1;fill-rule:nonzero;stroke:none"
         id="path224" /><path
         d="m 5940.63,1157.55 h -6.34 l -150.58,185.67 h -0.78 v -149.87 c 0,-21.62 8.6,-29.45 27.97,-29.45 v -6.35 h -64.87 v 6.35 c 17.88,0 26.46,5.58 26.46,36.52 v 124.9 c 0,23.87 -6.32,37.29 -31.68,39.53 v 6.33 h 54.82 l 133.44,-166.28 h 0.79 v 124.89 c 0,27.98 -7.5,35.06 -26.13,35.06 v 6.33 h 64.48 v -6.33 c -20.9,0 -27.58,-8.58 -27.58,-33.57 v -173.73"
         style="fill:#0c2f59;fill-opacity:1;fill-rule:nonzero;stroke:none"
         id="path226" /><path
         d="m 6051.71,1201.54 c 0,-28.69 5.22,-35.79 21.99,-35.79 h 17.5 c 21.65,0 42.17,14.56 42.17,45.87 0,31.3 -23.86,52.54 -61.53,52.54 h -20.13 z m 21.99,70.84 c 31.3,0 50.36,17.89 50.36,44.73 0,26.84 -16.45,45.87 -51.12,45.87 h -21.23 v -90.6 z m -50.33,58.54 c 0,27.21 -6.35,33.93 -24.23,33.93 v 6.33 h 80.52 c 51.46,0 74.2,-24.98 74.2,-52.2 0,-23.48 -13.44,-38.76 -42.87,-48.45 v -0.74 c 32.81,-6.72 55.18,-31.34 55.18,-60.05 0,-32.05 -28.32,-52.19 -68.6,-52.19 h -98.43 v 6.35 c 17.88,0 24.23,7.83 24.23,33.92 v 133.1"
         style="fill:#0c2f59;fill-opacity:1;fill-rule:nonzero;stroke:none"
         id="path228" /><path
         d="m 6361.88,1187.38 c -20.51,-23.86 -42.88,-35.03 -71.23,-35.03 -51.81,0 -72.71,36.52 -72.71,73.42 v 105.15 c 0,28.34 -7.43,33.93 -24.21,33.93 v 6.33 h 77.18 v -6.33 c -17.57,0 -24.62,-6.35 -24.62,-33.57 v -108.11 c 0,-32.81 18.25,-56.3 54.46,-56.3 24.58,0 46.22,12.32 61.13,35.43 v 128.62 c 0,24.61 -5.6,33.18 -22.74,33.93 v 6.33 h 75.32 v -6.33 c -17.94,0 -24.23,-8.21 -24.23,-33.93 v -133.1 c 0,-27.95 7.79,-33.92 24.23,-33.92 v -6.35 h -52.58 v 29.83"
         style="fill:#0c2f59;fill-opacity:1;fill-rule:nonzero;stroke:none"
         id="path230" /><path
         d="m 6497.54,1265.3 h 26.12 c 36.14,0 50.32,24.6 50.32,49.22 0,28.33 -21.28,48.46 -54.04,48.46 h -22.4 z m 0,-67.48 c 0,-26.09 6.71,-33.92 24.26,-33.92 v -6.35 h -76.82 v 6.35 c 16.39,0 24.22,5.22 24.22,33.92 v 133.85 c 0,27.95 -7.06,33.18 -24.22,33.18 v 6.33 h 87.6 c 48.09,0 71.23,-27.59 71.23,-55.94 0,-23.48 -12.69,-43.22 -44.01,-52.56 39.91,-25.72 53.35,-96.17 88.74,-98.78 v -6.35 h -43.63 c -39.87,48.46 -51.06,98.79 -90.24,98.79 h -17.13 v -58.52"
         style="fill:#0c2f59;fill-opacity:1;fill-rule:nonzero;stroke:none"
         id="path232" /><path
         d="m 6851.31,1157.55 c -11.92,-3.34 -49.94,-5.2 -59.61,-5.2 -93.97,0 -125.28,56.66 -125.28,105.85 0,75.7 57.39,118.19 109.97,118.19 30.26,0 41.76,-10.06 58.17,-10.06 6.7,0 9.66,1.87 11.92,7.09 h 6.74 v -63.01 h -5.96 c -5.58,40.64 -41.79,57.79 -70.87,57.79 -43.99,0 -77.15,-38.41 -77.15,-96.94 0,-62.63 37.3,-108.88 87.97,-108.88 15.28,0 35.79,3.74 35.79,22.78 v 23.09 c 0,26.1 -5.97,35.42 -23.47,35.42 h -8.22 v 6.35 h 86.51 v -6.35 c -20.89,0 -26.51,-10.04 -26.51,-28.7 v -57.42"
         style="fill:#0c2f59;fill-opacity:1;fill-rule:nonzero;stroke:none"
         id="path234" /><path
         d="m 6958.67,1259.71 v -61.89 c 0,-25.74 6.33,-33.92 24.63,-33.92 v -6.35 h -77.18 v 6.35 c 16.39,0 24.22,5.58 24.22,33.92 v 133.1 c 0,25.35 -5.19,33.93 -24.22,33.93 v 6.33 h 77.18 v -6.33 c -16.78,0 -24.63,-6.72 -24.63,-33.93 v -60.79 h 116.31 v 60.79 c 0,26.09 -5.61,33.93 -23.85,33.93 v 6.33 h 76.43 v -6.33 c -18.26,0 -24.23,-8.58 -24.23,-33.93 v -133.1 c 0,-25.36 5.97,-33.92 24.23,-33.92 v -6.35 h -76.43 v 6.35 c 16.77,0 23.85,5.58 23.85,33.92 v 61.89 h -116.31"
         style="fill:#0c2f59;fill-opacity:1;fill-rule:nonzero;stroke:none"
         id="path236" /></g></g></svg>
